# Blender 4.5.10 LTS
# www.blender.org
mtllib NatureStump.mtl
o cut_oak
v 0.000000 0.000000 -0.340000
v 0.000000 0.480000 -0.340000
v 0.116287 0.000000 -0.319495
v 0.116287 0.480000 -0.319495
v 0.218548 0.000000 -0.260455
v 0.218548 0.480000 -0.260455
v 0.294449 0.000000 -0.170000
v 0.294449 0.480000 -0.170000
v 0.334835 0.000000 -0.059040
v 0.334835 0.480000 -0.059040
v 0.334835 0.000000 0.059040
v 0.334835 0.480000 0.059040
v 0.294449 0.000000 0.170000
v 0.294449 0.480000 0.170000
v 0.218548 0.000000 0.260455
v 0.218548 0.480000 0.260455
v 0.116287 0.000000 0.319495
v 0.116287 0.480000 0.319495
v 0.000000 0.000000 0.340000
v 0.000000 0.480000 0.340000
v -0.116287 0.000000 0.319495
v -0.116287 0.480000 0.319495
v -0.218548 0.000000 0.260455
v -0.218548 0.480000 0.260455
v -0.294449 0.000000 0.170000
v -0.294449 0.480000 0.170000
v -0.334835 0.000000 0.059040
v -0.334835 0.480000 0.059040
v -0.334835 0.000000 -0.059040
v -0.334835 0.480000 -0.059040
v -0.294449 0.000000 -0.170000
v -0.294449 0.480000 -0.170000
v -0.218548 0.000000 -0.260455
v -0.218548 0.480000 -0.260455
v -0.116287 0.000000 -0.319495
v -0.116287 0.480000 -0.319495
vn -0.0000 -0.6700 -0.7423
vn -0.0000 0.6700 -0.7423
vn 0.2539 -0.6700 -0.6976
vn 0.2539 0.6700 -0.6976
vn 0.4772 -0.6700 -0.5687
vn 0.4772 0.6700 -0.5687
vn 0.6429 -0.6700 -0.3712
vn 0.6429 0.6700 -0.3712
vn 0.7311 -0.6700 -0.1289
vn 0.7311 0.6700 -0.1289
vn 0.7311 -0.6700 0.1289
vn 0.7311 0.6700 0.1289
vn 0.6429 -0.6700 0.3712
vn 0.6429 0.6700 0.3712
vn 0.4772 -0.6700 0.5687
vn 0.4772 0.6700 0.5687
vn 0.2539 -0.6700 0.6976
vn 0.2539 0.6700 0.6976
vn -0.0000 -0.6700 0.7423
vn -0.0000 0.6700 0.7423
vn -0.2539 -0.6700 0.6976
vn -0.2539 0.6700 0.6976
vn -0.4772 -0.6700 0.5687
vn -0.4772 0.6700 0.5687
vn -0.6429 -0.6700 0.3712
vn -0.6429 0.6700 0.3712
vn -0.7311 -0.6700 0.1289
vn -0.7311 0.6700 0.1289
vn -0.7311 -0.6700 -0.1289
vn -0.7311 0.6700 -0.1289
vn -0.6429 -0.6700 -0.3712
vn -0.6429 0.6700 -0.3712
vn -0.4772 -0.6700 -0.5687
vn -0.4772 0.6700 -0.5687
vn -0.2539 -0.6700 -0.6976
vn -0.2539 0.6700 -0.6976
vt 1.000000 0.500000
vt 1.000000 1.000000
vt 0.944444 1.000000
vt 0.944444 0.500000
vt 0.888889 1.000000
vt 0.888889 0.500000
vt 0.833333 1.000000
vt 0.833333 0.500000
vt 0.777778 1.000000
vt 0.777778 0.500000
vt 0.722222 1.000000
vt 0.722222 0.500000
vt 0.666667 1.000000
vt 0.666667 0.500000
vt 0.611111 1.000000
vt 0.611111 0.500000
vt 0.555555 1.000000
vt 0.555555 0.500000
vt 0.500000 1.000000
vt 0.500000 0.500000
vt 0.444444 1.000000
vt 0.444444 0.500000
vt 0.388889 1.000000
vt 0.388889 0.500000
vt 0.333333 1.000000
vt 0.333333 0.500000
vt 0.277778 1.000000
vt 0.277778 0.500000
vt 0.222222 1.000000
vt 0.222222 0.500000
vt 0.166666 1.000000
vt 0.166666 0.500000
vt 0.111111 1.000000
vt 0.111111 0.500000
vt 0.332085 0.475526
vt 0.250000 0.490000
vt 0.167915 0.475526
vt 0.095731 0.433851
vt 0.042154 0.370000
vt 0.013646 0.291676
vt 0.013646 0.208324
vt 0.042154 0.130000
vt 0.095731 0.066149
vt 0.167915 0.024474
vt 0.250000 0.010000
vt 0.332085 0.024474
vt 0.404269 0.066149
vt 0.457846 0.130000
vt 0.486354 0.208324
vt 0.486354 0.291676
vt 0.457846 0.370000
vt 0.404269 0.433851
vt 0.055555 1.000000
vt 0.055555 0.500000
vt -0.000000 1.000000
vt -0.000000 0.500000
vt 0.750000 0.490000
vt 0.832085 0.475526
vt 0.904269 0.433851
vt 0.957846 0.370000
vt 0.986354 0.291676
vt 0.986354 0.208324
vt 0.957846 0.130000
vt 0.904269 0.066149
vt 0.832085 0.024474
vt 0.750000 0.010000
vt 0.667915 0.024474
vt 0.595731 0.066149
vt 0.542154 0.130000
vt 0.513646 0.208324
vt 0.513646 0.291676
vt 0.542154 0.370000
vt 0.595731 0.433851
vt 0.667915 0.475526
s 1
usemtl OiledOak
f 1/1/1 2/2/2 4/3/4 3/4/3
f 3/4/3 4/3/4 6/5/6 5/6/5
f 5/6/5 6/5/6 8/7/8 7/8/7
f 7/8/7 8/7/8 10/9/10 9/10/9
f 9/10/9 10/9/10 12/11/12 11/12/11
f 11/12/11 12/11/12 14/13/14 13/14/13
f 13/14/13 14/13/14 16/15/16 15/16/15
f 15/16/15 16/15/16 18/17/18 17/18/17
f 17/18/17 18/17/18 20/19/20 19/20/19
f 19/20/19 20/19/20 22/21/22 21/22/21
f 21/22/21 22/21/22 24/23/24 23/24/23
f 23/24/23 24/23/24 26/25/26 25/26/25
f 25/26/25 26/25/26 28/27/28 27/28/27
f 27/28/27 28/27/28 30/29/30 29/30/29
f 29/30/29 30/29/30 32/31/32 31/32/31
f 31/32/31 32/31/32 34/33/34 33/34/33
f 4/35/4 2/36/2 36/37/36 34/38/34 32/39/32 30/40/30 28/41/28 26/42/26 24/43/24 22/44/22 20/45/20 18/46/18 16/47/16 14/48/14 12/49/12 10/50/10 8/51/8 6/52/6
f 33/34/33 34/33/34 36/53/36 35/54/35
f 35/54/35 36/53/36 2/55/2 1/56/1
f 1/57/1 3/58/3 5/59/5 7/60/7 9/61/9 11/62/11 13/63/13 15/64/15 17/65/17 19/66/19 21/67/21 23/68/23 25/69/25 27/70/27 29/71/29 31/72/31 33/73/33 35/74/35
o cut_face
v 0.000000 0.476000 -0.285000
v 0.000000 0.494000 -0.285000
v 0.097476 0.476000 -0.267812
v 0.097476 0.494000 -0.267812
v 0.183194 0.476000 -0.218323
v 0.183194 0.494000 -0.218323
v 0.246817 0.476000 -0.142500
v 0.246817 0.494000 -0.142500
v 0.280670 0.476000 -0.049490
v 0.280670 0.494000 -0.049490
v 0.280670 0.476000 0.049490
v 0.280670 0.494000 0.049490
v 0.246817 0.476000 0.142500
v 0.246817 0.494000 0.142500
v 0.183194 0.476000 0.218323
v 0.183194 0.494000 0.218323
v 0.097476 0.476000 0.267812
v 0.097476 0.494000 0.267812
v 0.000000 0.476000 0.285000
v 0.000000 0.494000 0.285000
v -0.097476 0.476000 0.267812
v -0.097476 0.494000 0.267812
v -0.183194 0.476000 0.218323
v -0.183194 0.494000 0.218323
v -0.246817 0.476000 0.142500
v -0.246817 0.494000 0.142500
v -0.280670 0.476000 0.049490
v -0.280670 0.494000 0.049490
v -0.280670 0.476000 -0.049490
v -0.280670 0.494000 -0.049490
v -0.246817 0.476000 -0.142500
v -0.246817 0.494000 -0.142500
v -0.183194 0.476000 -0.218323
v -0.183194 0.494000 -0.218323
v -0.097476 0.476000 -0.267812
v -0.097476 0.494000 -0.267812
vn -0.0000 -0.6700 -0.7423
vn -0.0000 0.6700 -0.7423
vn 0.2539 -0.6700 -0.6976
vn 0.2539 0.6700 -0.6976
vn 0.4772 -0.6700 -0.5687
vn 0.4772 0.6700 -0.5687
vn 0.6429 -0.6700 -0.3712
vn 0.6429 0.6700 -0.3712
vn 0.7311 -0.6700 -0.1289
vn 0.7311 0.6700 -0.1289
vn 0.7311 -0.6700 0.1289
vn 0.7311 0.6700 0.1289
vn 0.6429 -0.6700 0.3712
vn 0.6429 0.6700 0.3712
vn 0.4772 -0.6700 0.5687
vn 0.4772 0.6700 0.5687
vn 0.2539 -0.6700 0.6976
vn 0.2539 0.6700 0.6976
vn -0.0000 -0.6700 0.7423
vn -0.0000 0.6700 0.7423
vn -0.2539 -0.6700 0.6976
vn -0.2539 0.6700 0.6976
vn -0.4772 -0.6700 0.5687
vn -0.4772 0.6700 0.5687
vn -0.6429 -0.6700 0.3712
vn -0.6429 0.6700 0.3712
vn -0.7311 -0.6700 0.1289
vn -0.7311 0.6700 0.1289
vn -0.7311 -0.6700 -0.1289
vn -0.7311 0.6700 -0.1289
vn -0.6429 -0.6700 -0.3712
vn -0.6429 0.6700 -0.3712
vn -0.4772 -0.6700 -0.5687
vn -0.4772 0.6700 -0.5687
vn -0.2539 -0.6700 -0.6976
vn -0.2539 0.6700 -0.6976
vt 1.000000 0.500000
vt 1.000000 1.000000
vt 0.944444 1.000000
vt 0.944444 0.500000
vt 0.888889 1.000000
vt 0.888889 0.500000
vt 0.833333 1.000000
vt 0.833333 0.500000
vt 0.777778 1.000000
vt 0.777778 0.500000
vt 0.722222 1.000000
vt 0.722222 0.500000
vt 0.666667 1.000000
vt 0.666667 0.500000
vt 0.611111 1.000000
vt 0.611111 0.500000
vt 0.555555 1.000000
vt 0.555555 0.500000
vt 0.500000 1.000000
vt 0.500000 0.500000
vt 0.444444 1.000000
vt 0.444444 0.500000
vt 0.388889 1.000000
vt 0.388889 0.500000
vt 0.333333 1.000000
vt 0.333333 0.500000
vt 0.277778 1.000000
vt 0.277778 0.500000
vt 0.222222 1.000000
vt 0.222222 0.500000
vt 0.166666 1.000000
vt 0.166666 0.500000
vt 0.111111 1.000000
vt 0.111111 0.500000
vt 0.332085 0.475526
vt 0.250000 0.490000
vt 0.167915 0.475526
vt 0.095731 0.433851
vt 0.042154 0.370000
vt 0.013646 0.291676
vt 0.013646 0.208324
vt 0.042154 0.130000
vt 0.095731 0.066149
vt 0.167915 0.024474
vt 0.250000 0.010000
vt 0.332085 0.024474
vt 0.404269 0.066149
vt 0.457846 0.130000
vt 0.486354 0.208324
vt 0.486354 0.291676
vt 0.457846 0.370000
vt 0.404269 0.433851
vt 0.055555 1.000000
vt 0.055555 0.500000
vt -0.000000 1.000000
vt -0.000000 0.500000
vt 0.750000 0.490000
vt 0.832085 0.475526
vt 0.904269 0.433851
vt 0.957846 0.370000
vt 0.986354 0.291676
vt 0.986354 0.208324
vt 0.957846 0.130000
vt 0.904269 0.066149
vt 0.832085 0.024474
vt 0.750000 0.010000
vt 0.667915 0.024474
vt 0.595731 0.066149
vt 0.542154 0.130000
vt 0.513646 0.208324
vt 0.513646 0.291676
vt 0.542154 0.370000
vt 0.595731 0.433851
vt 0.667915 0.475526
s 1
usemtl PlateEdge
f 37/75/37 38/76/38 40/77/40 39/78/39
f 39/78/39 40/77/40 42/79/42 41/80/41
f 41/80/41 42/79/42 44/81/44 43/82/43
f 43/82/43 44/81/44 46/83/46 45/84/45
f 45/84/45 46/83/46 48/85/48 47/86/47
f 47/86/47 48/85/48 50/87/50 49/88/49
f 49/88/49 50/87/50 52/89/52 51/90/51
f 51/90/51 52/89/52 54/91/54 53/92/53
f 53/92/53 54/91/54 56/93/56 55/94/55
f 55/94/55 56/93/56 58/95/58 57/96/57
f 57/96/57 58/95/58 60/97/60 59/98/59
f 59/98/59 60/97/60 62/99/62 61/100/61
f 61/100/61 62/99/62 64/101/64 63/102/63
f 63/102/63 64/101/64 66/103/66 65/104/65
f 65/104/65 66/103/66 68/105/68 67/106/67
f 67/106/67 68/105/68 70/107/70 69/108/69
f 40/109/40 38/110/38 72/111/72 70/112/70 68/113/68 66/114/66 64/115/64 62/116/62 60/117/60 58/118/58 56/119/56 54/120/54 52/121/52 50/122/50 48/123/48 46/124/46 44/125/44 42/126/42
f 69/108/69 70/107/70 72/127/72 71/128/71
f 71/128/71 72/127/72 38/129/38 37/130/37
f 37/131/37 39/132/39 41/133/41 43/134/43 45/135/45 47/136/47 49/137/49 51/138/51 53/139/53 55/140/55 57/141/57 59/142/59 61/143/61 63/144/63 65/145/65 67/146/67 69/147/69 71/148/71
o root
v 0.007647 0.120745 -0.279484
v 0.073024 0.262893 0.153089
v 0.045997 0.108938 -0.281401
v 0.111374 0.251086 0.151173
v 0.070845 0.078029 -0.274999
v 0.136223 0.220177 0.157574
v 0.072701 0.039823 -0.262725
v 0.138078 0.181971 0.169849
v 0.050854 0.008914 -0.249266
v 0.116231 0.151062 0.183308
v 0.013650 -0.002893 -0.239763
v 0.079027 0.139255 0.192810
v -0.024700 0.008914 -0.237847
v 0.040677 0.151062 0.194727
v -0.049548 0.039823 -0.244248
v 0.015829 0.181971 0.188325
v -0.051404 0.078029 -0.256523
v 0.013974 0.220177 0.176050
v -0.029557 0.108938 -0.269982
v 0.035820 0.251086 0.162592
vn -0.1268 0.5289 -0.8392
vn 0.0561 0.9267 0.3715
vn 0.3247 0.3899 -0.8617
vn 0.5077 0.7877 0.3489
vn 0.6172 0.0260 -0.7864
vn 0.8002 0.4238 0.4243
vn 0.6391 -0.4238 -0.6418
vn 0.8220 -0.0260 0.5688
vn 0.3819 -0.7877 -0.4834
vn 0.5648 -0.3899 0.7273
vn -0.0561 -0.9267 -0.3715
vn 0.1268 -0.5289 0.8392
vn -0.5077 -0.7877 -0.3489
vn -0.3247 -0.3899 0.8617
vn -0.8002 -0.4238 -0.4243
vn -0.6172 -0.0260 0.7864
vn -0.8220 0.0260 -0.5688
vn -0.6391 0.4238 0.6418
vn -0.5648 0.3899 -0.7273
vn -0.3819 0.7877 0.4834
vt 1.000000 0.500000
vt 1.000000 1.000000
vt 0.900000 1.000000
vt 0.900000 0.500000
vt 0.800000 1.000000
vt 0.800000 0.500000
vt 0.700000 1.000000
vt 0.700000 0.500000
vt 0.600000 1.000000
vt 0.600000 0.500000
vt 0.500000 1.000000
vt 0.500000 0.500000
vt 0.400000 1.000000
vt 0.400000 0.500000
vt 0.300000 1.000000
vt 0.300000 0.500000
vt 0.200000 1.000000
vt 0.200000 0.500000
vt 0.391068 0.444164
vt 0.250000 0.490000
vt 0.108932 0.444164
vt 0.021746 0.324164
vt 0.021746 0.175836
vt 0.108932 0.055836
vt 0.250000 0.010000
vt 0.391068 0.055836
vt 0.478254 0.175836
vt 0.478254 0.324164
vt 0.100000 1.000000
vt 0.100000 0.500000
vt -0.000000 1.000000
vt -0.000000 0.500000
vt 0.750000 0.490000
vt 0.891068 0.444164
vt 0.978254 0.324164
vt 0.978254 0.175836
vt 0.891068 0.055836
vt 0.750000 0.010000
vt 0.608932 0.055836
vt 0.521746 0.175836
vt 0.521746 0.324164
vt 0.608932 0.444164
s 1
usemtl OiledOak
f 73/149/73 74/150/74 76/151/76 75/152/75
f 75/152/75 76/151/76 78/153/78 77/154/77
f 77/154/77 78/153/78 80/155/80 79/156/79
f 79/156/79 80/155/80 82/157/82 81/158/81
f 81/158/81 82/157/82 84/159/84 83/160/83
f 83/160/83 84/159/84 86/161/86 85/162/85
f 85/162/85 86/161/86 88/163/88 87/164/87
f 87/164/87 88/163/88 90/165/90 89/166/89
f 76/167/76 74/168/74 92/169/92 90/170/90 88/171/88 86/172/86 84/173/84 82/174/82 80/175/80 78/176/78
f 89/166/89 90/165/90 92/177/92 91/178/91
f 91/178/91 92/177/92 74/179/74 73/180/73
f 73/181/73 75/182/75 77/183/77 79/184/79 81/185/81 83/186/83 85/187/85 87/188/87 89/189/89 91/190/91
o root.001
v 0.037469 0.120745 -0.049691
v 0.357810 0.262893 -0.347644
v 0.014257 0.108938 -0.080279
v 0.334598 0.251086 -0.378232
v 0.005530 0.078029 -0.104409
v 0.325871 0.220177 -0.402362
v 0.014620 0.039823 -0.112864
v 0.334961 0.181971 -0.410816
v 0.038055 0.008914 -0.102414
v 0.358396 0.151062 -0.400366
v 0.066884 -0.002893 -0.077051
v 0.387225 0.139255 -0.375003
v 0.090096 0.008914 -0.046462
v 0.410437 0.151062 -0.344415
v 0.098823 0.039823 -0.022333
v 0.419165 0.181971 -0.320285
v 0.089734 0.078029 -0.013878
v 0.410075 0.220177 -0.311830
v 0.066298 0.108938 -0.024328
v 0.386639 0.251086 -0.322280
vn -0.6214 0.5289 0.5780
vn 0.2751 0.9267 -0.2559
vn -0.8947 0.3899 0.2179
vn 0.0018 0.7877 -0.6160
vn -0.9975 0.0260 -0.0662
vn -0.1009 0.4238 -0.9001
vn -0.8904 -0.4238 -0.1657
vn 0.0061 -0.0260 -0.9996
vn -0.6145 -0.7877 -0.0427
vn 0.2820 -0.3899 -0.8766
vn -0.2751 -0.9267 0.2559
vn 0.6214 -0.5289 -0.5780
vn -0.0018 -0.7877 0.6160
vn 0.8947 -0.3899 -0.2179
vn 0.1009 -0.4238 0.9001
vn 0.9975 -0.0260 0.0662
vn -0.0061 0.0260 0.9996
vn 0.8904 0.4238 0.1657
vn -0.2820 0.3899 0.8766
vn 0.6145 0.7877 0.0427
vt 1.000000 0.500000
vt 1.000000 1.000000
vt 0.900000 1.000000
vt 0.900000 0.500000
vt 0.800000 1.000000
vt 0.800000 0.500000
vt 0.700000 1.000000
vt 0.700000 0.500000
vt 0.600000 1.000000
vt 0.600000 0.500000
vt 0.500000 1.000000
vt 0.500000 0.500000
vt 0.400000 1.000000
vt 0.400000 0.500000
vt 0.300000 1.000000
vt 0.300000 0.500000
vt 0.200000 1.000000
vt 0.200000 0.500000
vt 0.391068 0.444164
vt 0.250000 0.490000
vt 0.108932 0.444164
vt 0.021746 0.324164
vt 0.021746 0.175836
vt 0.108932 0.055836
vt 0.250000 0.010000
vt 0.391068 0.055836
vt 0.478254 0.175836
vt 0.478254 0.324164
vt 0.100000 1.000000
vt 0.100000 0.500000
vt -0.000000 1.000000
vt -0.000000 0.500000
vt 0.750000 0.490000
vt 0.891068 0.444164
vt 0.978254 0.324164
vt 0.978254 0.175836
vt 0.891068 0.055836
vt 0.750000 0.010000
vt 0.608932 0.055836
vt 0.521746 0.175836
vt 0.521746 0.324164
vt 0.608932 0.444164
s 1
usemtl OiledOak
f 93/191/93 94/192/94 96/193/96 95/194/95
f 95/194/95 96/193/96 98/195/98 97/196/97
f 97/196/97 98/195/98 100/197/100 99/198/99
f 99/198/99 100/197/100 102/199/102 101/200/101
f 101/200/101 102/199/102 104/201/104 103/202/103
f 103/202/103 104/201/104 106/203/106 105/204/105
f 105/204/105 106/203/106 108/205/108 107/206/107
f 107/206/107 108/205/108 110/207/110 109/208/109
f 96/209/96 94/210/94 112/211/112 110/212/110 108/213/108 106/214/106 104/215/104 102/216/102 100/217/100 98/218/98
f 109/208/109 110/207/110 112/219/112 111/220/111
f 111/220/111 112/219/112 94/221/94 93/222/93
f 93/223/93 95/224/95 97/225/97 99/226/99 101/227/101 103/228/103 105/229/105 107/230/107 109/231/109 111/232/111
o root.002
v -0.049795 0.120745 0.337208
v -0.475521 0.262893 0.236453
v -0.062327 0.108938 0.373503
v -0.488053 0.251086 0.272749
v -0.077538 0.078029 0.394168
v -0.503264 0.220177 0.293414
v -0.089619 0.039823 0.391309
v -0.515345 0.181971 0.290555
v -0.093954 0.008914 0.366018
v -0.519680 0.151062 0.265264
v -0.088888 -0.002893 0.327956
v -0.514614 0.139255 0.227201
v -0.076356 0.008914 0.291660
v -0.502082 0.151062 0.190906
v -0.061145 0.039823 0.270995
v -0.486871 0.181971 0.170241
v -0.049064 0.078029 0.273854
v -0.474790 0.220177 0.173100
v -0.044729 0.108938 0.299145
v -0.470455 0.251086 0.198391
vn 0.8259 0.5289 0.1955
vn -0.3656 0.9267 -0.0865
vn 0.6783 0.3899 0.6228
vn -0.5132 0.7877 0.3408
vn 0.4992 0.0260 0.8661
vn -0.6923 0.4238 0.5841
vn 0.3570 -0.4238 0.8324
vn -0.8345 -0.0260 0.5504
vn 0.3060 -0.7877 0.5347
vn -0.8855 -0.3899 0.2527
vn 0.3656 -0.9267 0.0865
vn -0.8259 -0.5289 -0.1955
vn 0.5132 -0.7877 -0.3408
vn -0.6783 -0.3899 -0.6228
vn 0.6923 -0.4238 -0.5841
vn -0.4992 -0.0260 -0.8661
vn 0.8345 0.0260 -0.5504
vn -0.3570 0.4238 -0.8324
vn 0.8855 0.3899 -0.2527
vn -0.3060 0.7877 -0.5347
vt 1.000000 0.500000
vt 1.000000 1.000000
vt 0.900000 1.000000
vt 0.900000 0.500000
vt 0.800000 1.000000
vt 0.800000 0.500000
vt 0.700000 1.000000
vt 0.700000 0.500000
vt 0.600000 1.000000
vt 0.600000 0.500000
vt 0.500000 1.000000
vt 0.500000 0.500000
vt 0.400000 1.000000
vt 0.400000 0.500000
vt 0.300000 1.000000
vt 0.300000 0.500000
vt 0.200000 1.000000
vt 0.200000 0.500000
vt 0.391068 0.444164
vt 0.250000 0.490000
vt 0.108932 0.444164
vt 0.021746 0.324164
vt 0.021746 0.175836
vt 0.108932 0.055836
vt 0.250000 0.010000
vt 0.391068 0.055836
vt 0.478254 0.175836
vt 0.478254 0.324164
vt 0.100000 1.000000
vt 0.100000 0.500000
vt -0.000000 1.000000
vt -0.000000 0.500000
vt 0.750000 0.490000
vt 0.891068 0.444164
vt 0.978254 0.324164
vt 0.978254 0.175836
vt 0.891068 0.055836
vt 0.750000 0.010000
vt 0.608932 0.055836
vt 0.521746 0.175836
vt 0.521746 0.324164
vt 0.608932 0.444164
s 1
usemtl OiledOak
f 113/233/113 114/234/114 116/235/116 115/236/115
f 115/236/115 116/235/116 118/237/118 117/238/117
f 117/238/117 118/237/118 120/239/120 119/240/119
f 119/240/119 120/239/120 122/241/122 121/242/121
f 121/242/121 122/241/122 124/243/124 123/244/123
f 123/244/123 124/243/124 126/245/126 125/246/125
f 125/246/125 126/245/126 128/247/128 127/248/127
f 127/248/127 128/247/128 130/249/130 129/250/129
f 116/251/116 114/252/114 132/253/132 130/254/130 128/255/128 126/256/126 124/257/124 122/258/122 120/259/120 118/260/118
f 129/250/129 130/249/130 132/261/132 131/262/131
f 131/262/131 132/261/132 114/263/114 113/264/113
f 113/265/113 115/266/115 117/267/117 119/268/119 121/269/121 123/270/123 125/271/125 127/272/127 129/273/129 131/274/131
