# Blender 4.5.10 LTS
# www.blender.org
mtllib NatureFern.mtl
o fern_frond
v 0.007165 0.090000 -0.001684
v -0.007165 0.090000 0.001684
v 0.080466 0.165360 0.141341
v -0.009095 0.165360 0.162386
v 0.074895 0.182000 0.290572
v 0.062357 0.182000 0.293519
v 0.007165 0.072000 -0.001684
v -0.007165 0.072000 0.001684
v 0.080466 0.147360 0.141341
v -0.009095 0.147360 0.162386
v 0.074895 0.164000 0.290572
v 0.062357 0.164000 0.293519
vn -0.0995 0.9004 -0.4234
vn 0.0995 -0.9004 0.4234
vn 0.8899 -0.0000 -0.4561
vn -0.9999 -0.0000 -0.0120
vn -0.0263 0.9934 -0.1117
vn 0.0263 -0.9934 0.1117
vn 0.9993 -0.0000 0.0373
vn -0.8781 -0.0000 0.4785
s 0
usemtl LeafDeep
f 1//1 2//1 4//1 3//1
f 7//2 9//2 10//2 8//2
f 1//3 3//3 9//3 7//3
f 2//4 8//4 10//4 4//4
f 3//5 4//5 6//5 5//5
f 9//6 11//6 12//6 10//6
f 3//7 5//7 11//7 9//7
f 4//8 10//8 12//8 6//8
o fern_frond.001
v 0.007171 0.090000 -0.005635
v -0.007171 0.090000 0.005635
v 0.154064 0.173040 0.103786
v 0.064432 0.173040 0.174229
v 0.216367 0.198000 0.262391
v 0.203818 0.198000 0.272253
v 0.007171 0.072000 -0.005635
v -0.007171 0.072000 0.005635
v 0.154064 0.155040 0.103786
v 0.064432 0.155040 0.174229
v 0.216367 0.180000 0.262391
v 0.203818 0.180000 0.272253
vn -0.2627 0.9051 -0.3343
vn 0.2627 -0.9051 0.3343
vn 0.5974 -0.0000 -0.8020
vn -0.9204 -0.0000 0.3909
vn -0.0934 0.9885 -0.1189
vn 0.0934 -0.9885 0.1189
vn 0.9308 -0.0000 -0.3656
vn -0.5752 -0.0000 0.8180
s 0
usemtl FernLeaf
f 13//9 14//9 16//9 15//9
f 19//10 21//10 22//10 20//10
f 13//11 15//11 21//11 19//11
f 14//12 20//12 22//12 16//12
f 15//13 16//13 18//13 17//13
f 21//14 23//14 24//14 22//14
f 15//15 17//15 23//15 21//15
f 16//16 22//16 24//16 18//16
o fern_frond.002
v 0.007391 0.090000 -0.007985
v -0.007391 0.090000 0.007985
v 0.191205 0.180720 0.084323
v 0.098823 0.180720 0.184130
v 0.285340 0.214000 0.251141
v 0.272406 0.214000 0.265114
v 0.007391 0.072000 -0.007985
v -0.007391 0.072000 0.007985
v 0.191205 0.162720 0.084323
v 0.098823 0.162720 0.184130
v 0.285340 0.196000 0.251141
v 0.272406 0.196000 0.265114
vn -0.3062 0.9088 -0.2834
vn 0.3062 -0.9088 0.2834
vn 0.4488 -0.0000 -0.8936
vn -0.8564 -0.0000 0.5164
vn -0.1317 0.9838 -0.1219
vn 0.1317 -0.9838 0.1219
vn 0.8709 -0.0000 -0.4914
vn -0.4228 -0.0000 0.9062
s 0
usemtl FernLeaf
f 25//17 26//17 28//17 27//17
f 31//18 33//18 34//18 32//18
f 25//19 27//19 33//19 31//19
f 26//20 32//20 34//20 28//20
f 27//21 28//21 30//21 29//21
f 33//22 35//22 36//22 34//22
f 27//23 29//23 35//23 33//23
f 28//24 34//24 36//24 30//24
o fern_frond.003
v 0.000050 0.090000 -0.007360
v -0.000050 0.090000 0.007360
v 0.218708 0.188400 -0.044511
v 0.218082 0.188400 0.047487
v 0.420034 0.230000 -0.003578
v 0.419946 0.230000 0.009301
v 0.000050 0.072000 -0.007360
v -0.000050 0.072000 0.007360
v 0.218708 0.170400 -0.044511
v 0.218082 0.170400 0.047487
v 0.420034 0.212000 -0.003578
v 0.419946 0.212000 0.009301
vn -0.4108 0.9117 -0.0028
vn 0.4108 -0.9117 0.0028
vn -0.1675 -0.0000 -0.9859
vn -0.1809 -0.0000 0.9835
vn -0.2021 0.9794 -0.0014
vn 0.2021 -0.9794 0.0014
vn 0.1992 -0.0000 -0.9800
vn 0.1859 -0.0000 0.9826
s 0
usemtl LeafDeep
f 37//25 38//25 40//25 39//25
f 43//26 45//26 46//26 44//26
f 37//27 39//27 45//27 43//27
f 38//28 44//28 46//28 40//28
f 39//29 40//29 42//29 41//29
f 45//30 47//30 48//30 46//30
f 39//31 41//31 47//31 45//31
f 40//32 46//32 48//32 42//32
o fern_frond.004
v -0.000567 0.090000 -0.009102
v 0.000567 0.090000 0.009102
v 0.235196 0.165360 -0.071752
v 0.242279 0.165360 0.042027
v 0.458615 0.182000 -0.036546
v 0.459607 0.182000 -0.020617
v -0.000567 0.072000 -0.009102
v 0.000567 0.072000 0.009102
v 0.235196 0.147360 -0.071752
v 0.242279 0.147360 0.042027
v 0.458615 0.164000 -0.036546
v 0.459607 0.164000 -0.020617
vn -0.2999 0.9538 0.0187
vn 0.2999 -0.9538 -0.0187
vn -0.2568 -0.0000 -0.9665
vn -0.1350 -0.0000 0.9908
vn -0.0750 0.9972 0.0047
vn 0.0750 -0.9972 -0.0047
vn 0.1557 -0.0000 -0.9878
vn 0.2770 -0.0000 0.9609
s 0
usemtl FernLeaf
f 49//33 50//33 52//33 51//33
f 55//34 57//34 58//34 56//34
f 49//35 51//35 57//35 55//35
f 50//36 56//36 58//36 52//36
f 51//37 52//37 54//37 53//37
f 57//38 59//38 60//38 58//38
f 51//39 53//39 59//39 57//39
f 52//40 58//40 60//40 54//40
o fern_frond.005
v -0.007954 0.090000 -0.007424
v 0.007954 0.090000 0.007424
v 0.127694 0.173040 -0.236470
v 0.227117 0.173040 -0.143673
v 0.334205 0.198000 -0.372018
v 0.348124 0.198000 -0.359027
v -0.007954 0.072000 -0.007424
v 0.007954 0.072000 0.007424
v 0.127694 0.155040 -0.236470
v 0.227117 0.155040 -0.143673
v 0.334205 0.180000 -0.372018
v 0.348124 0.180000 -0.359027
vn -0.2076 0.9526 0.2224
vn 0.2076 -0.9526 -0.2224
vn -0.8604 -0.0000 -0.5096
vn 0.5676 -0.0000 0.8233
vn -0.0706 0.9946 0.0756
vn 0.0706 -0.9946 -0.0756
vn -0.5487 -0.0000 -0.8360
vn 0.8718 -0.0000 0.4899
s 0
usemtl FernLeaf
f 61//41 62//41 64//41 63//41
f 67//42 69//42 70//42 68//42
f 61//43 63//43 69//43 67//43
f 62//44 68//44 70//44 64//44
f 63//45 64//45 66//45 65//45
f 69//46 71//46 72//46 70//46
f 63//47 65//47 71//47 69//47
f 64//48 70//48 72//48 66//48
o fern_frond.006
v -0.006135 0.090000 -0.004065
v 0.006135 0.090000 0.004065
v 0.047822 0.180720 -0.155451
v 0.124514 0.180720 -0.104634
v 0.160340 0.214000 -0.253639
v 0.171076 0.214000 -0.246525
v -0.006135 0.072000 -0.004065
v 0.006135 0.072000 0.004065
v 0.047822 0.162720 -0.155451
v 0.124514 0.162720 -0.104634
v 0.160340 0.196000 -0.253639
v 0.171076 0.196000 -0.246525
vn -0.2777 0.8645 0.4191
vn 0.2777 -0.8645 -0.4191
vn -0.9420 -0.0000 -0.3357
vn 0.6764 -0.0000 0.7366
vn -0.1244 0.9743 0.1877
vn 0.1244 -0.9743 -0.1877
vn -0.6575 -0.0000 -0.7535
vn 0.9501 -0.0000 0.3118
s 0
usemtl LeafDeep
f 73//49 74//49 76//49 75//49
f 79//50 81//50 82//50 80//50
f 73//51 75//51 81//51 79//51
f 74//52 80//52 82//52 76//52
f 75//53 76//53 78//53 77//53
f 81//54 83//54 84//54 82//54
f 75//55 77//55 83//55 81//55
f 76//56 82//56 84//56 78//56
o fern_frond.007
v -0.009116 0.090000 -0.000266
v 0.009116 0.090000 0.000266
v -0.051819 0.188400 -0.178387
v 0.062132 0.188400 -0.175062
v 0.001939 0.230000 -0.340088
v 0.017893 0.230000 -0.339623
v -0.009116 0.072000 -0.000266
v 0.009116 0.072000 0.000266
v -0.051819 0.170400 -0.178387
v 0.062132 0.170400 -0.175062
v 0.001939 0.212000 -0.340088
v 0.017893 0.212000 -0.339623
vn -0.0142 0.8738 0.4861
vn 0.0142 -0.8738 -0.4861
vn -0.9724 -0.0000 0.2331
vn 0.9572 -0.0000 0.2894
vn -0.0072 0.9690 0.2469
vn 0.0072 -0.9690 -0.2469
vn -0.9489 -0.0000 -0.3155
vn 0.9657 -0.0000 -0.2596
s 0
usemtl FernLeaf
f 85//57 86//57 88//57 87//57
f 91//58 93//58 94//58 92//58
f 85//59 87//59 93//59 91//59
f 86//60 92//60 94//60 88//60
f 87//61 88//61 90//61 89//61
f 93//62 95//62 96//62 94//62
f 87//63 89//63 95//63 93//63
f 88//64 94//64 96//64 90//64
o fern_heart
v 0.000000 0.040000 -0.075000
v 0.000000 0.160000 -0.075000
v 0.044084 0.040000 -0.060676
v 0.044084 0.160000 -0.060676
v 0.071329 0.040000 -0.023176
v 0.071329 0.160000 -0.023176
v 0.071329 0.040000 0.023176
v 0.071329 0.160000 0.023176
v 0.044084 0.040000 0.060676
v 0.044084 0.160000 0.060676
v 0.000000 0.040000 0.075000
v 0.000000 0.160000 0.075000
v -0.044084 0.040000 0.060676
v -0.044084 0.160000 0.060676
v -0.071329 0.040000 0.023176
v -0.071329 0.160000 0.023176
v -0.071329 0.040000 -0.023176
v -0.071329 0.160000 -0.023176
v -0.044084 0.040000 -0.060676
v -0.044084 0.160000 -0.060676
vn -0.0000 -0.6437 -0.7653
vn -0.0000 0.6437 -0.7653
vn 0.4498 -0.6437 -0.6191
vn 0.4498 0.6437 -0.6191
vn 0.7278 -0.6437 -0.2365
vn 0.7278 0.6437 -0.2365
vn 0.7278 -0.6437 0.2365
vn 0.7278 0.6437 0.2365
vn 0.4498 -0.6437 0.6191
vn 0.4498 0.6437 0.6191
vn -0.0000 -0.6437 0.7653
vn -0.0000 0.6437 0.7653
vn -0.4498 -0.6437 0.6191
vn -0.4498 0.6437 0.6191
vn -0.7278 -0.6437 0.2365
vn -0.7278 0.6437 0.2365
vn -0.7278 -0.6437 -0.2365
vn -0.7278 0.6437 -0.2365
vn -0.4498 -0.6437 -0.6191
vn -0.4498 0.6437 -0.6191
vt 1.000000 0.500000
vt 1.000000 1.000000
vt 0.900000 1.000000
vt 0.900000 0.500000
vt 0.800000 1.000000
vt 0.800000 0.500000
vt 0.700000 1.000000
vt 0.700000 0.500000
vt 0.600000 1.000000
vt 0.600000 0.500000
vt 0.500000 1.000000
vt 0.500000 0.500000
vt 0.400000 1.000000
vt 0.400000 0.500000
vt 0.300000 1.000000
vt 0.300000 0.500000
vt 0.200000 1.000000
vt 0.200000 0.500000
vt 0.391068 0.444164
vt 0.250000 0.490000
vt 0.108932 0.444164
vt 0.021746 0.324164
vt 0.021746 0.175836
vt 0.108932 0.055836
vt 0.250000 0.010000
vt 0.391068 0.055836
vt 0.478254 0.175836
vt 0.478254 0.324164
vt 0.100000 1.000000
vt 0.100000 0.500000
vt -0.000000 1.000000
vt -0.000000 0.500000
vt 0.750000 0.490000
vt 0.891068 0.444164
vt 0.978254 0.324164
vt 0.978254 0.175836
vt 0.891068 0.055836
vt 0.750000 0.010000
vt 0.608932 0.055836
vt 0.521746 0.175836
vt 0.521746 0.324164
vt 0.608932 0.444164
s 1
usemtl FernLeaf
f 97/1/65 98/2/66 100/3/68 99/4/67
f 99/4/67 100/3/68 102/5/70 101/6/69
f 101/6/69 102/5/70 104/7/72 103/8/71
f 103/8/71 104/7/72 106/9/74 105/10/73
f 105/10/73 106/9/74 108/11/76 107/12/75
f 107/12/75 108/11/76 110/13/78 109/14/77
f 109/14/77 110/13/78 112/15/80 111/16/79
f 111/16/79 112/15/80 114/17/82 113/18/81
f 100/19/68 98/20/66 116/21/84 114/22/82 112/23/80 110/24/78 108/25/76 106/26/74 104/27/72 102/28/70
f 113/18/81 114/17/82 116/29/84 115/30/83
f 115/30/83 116/29/84 98/31/66 97/32/65
f 97/33/65 99/34/67 101/35/69 103/36/71 105/37/73 107/38/75 109/39/77 111/40/79 113/41/81 115/42/83
