# Blender 4.5.10 LTS
# www.blender.org
mtllib NatureRockB.mtl
o weathered_boulder
v 0.000000 -0.113376 0.000000
v 0.534503 0.098122 0.302038
v -0.219304 0.083145 0.524969
v -0.705416 0.084455 0.000000
v -0.200126 0.102110 -0.479059
v 0.474367 0.120835 -0.268056
v 0.177728 0.475743 0.425445
v -0.502176 0.489668 0.283771
v -0.549617 0.507586 -0.310579
v 0.216815 0.514393 -0.519010
v 0.677290 0.506951 0.000000
v 0.000000 0.734918 0.000000
v -0.111445 -0.056616 0.266777
v 0.292738 -0.057795 0.165421
v 0.184494 0.074507 0.441625
v 0.607622 0.070506 0.000000
v 0.310333 -0.079299 -0.175363
v -0.394845 -0.090424 0.000000
v -0.524998 0.054903 0.296669
v -0.120641 -0.086040 -0.288789
v -0.476978 0.077321 -0.269534
v 0.171731 0.090106 -0.411075
v 0.632959 0.300000 0.159956
v 0.693117 0.300000 -0.175159
v 0.000000 0.300000 0.615159
v 0.467237 0.300000 0.500186
v -0.699040 0.300000 0.176655
v -0.390410 0.300000 0.417941
v -0.378380 0.300000 -0.405063
v -0.652460 0.300000 -0.164884
v 0.439627 0.300000 -0.470629
v 0.000000 0.300000 -0.604293
v 0.522481 0.543922 0.295247
v -0.189831 0.532016 0.454400
v -0.593634 0.524211 0.000000
v -0.182207 0.522698 -0.436151
v 0.479104 0.523671 -0.270735
v 0.114054 0.664963 0.273022
v 0.378251 0.674015 0.000000
v -0.318992 0.689883 0.180256
v -0.328099 0.701014 -0.185403
v 0.122588 0.692270 -0.293449
vn 0.0547 -0.9717 0.2296
vn 0.4543 -0.8705 0.1896
vn -0.0570 -0.9811 0.1849
vn -0.0579 -0.9959 -0.0701
vn 0.0452 -0.9926 -0.1129
vn 0.9279 -0.2766 0.2499
vn 0.1627 -0.5147 0.8418
vn -0.8146 -0.3531 0.4602
vn -0.5753 -0.2241 -0.7867
vn 0.3742 -0.6619 -0.6496
vn 0.8915 -0.1292 0.4342
vn -0.4493 0.0845 0.8894
vn -0.9813 0.1387 -0.1338
vn -0.4641 -0.0885 -0.8814
vn 0.6539 -0.5075 -0.5610
vn 0.1523 0.6506 0.7440
vn -0.4174 0.6885 0.5931
vn -0.6102 0.7818 -0.1283
vn -0.1182 0.7551 -0.6449
vn 0.4667 0.8355 -0.2901
vn 0.1585 0.9844 -0.0769
vn 0.4221 0.8501 -0.3149
vn 0.4040 0.7928 -0.4564
vn -0.0170 0.9884 -0.1507
vn -0.1350 0.7687 -0.6252
vn -0.2529 0.7129 -0.6541
vn -0.1213 0.9921 0.0332
vn -0.5348 0.8441 0.0390
vn -0.6267 0.7233 0.2900
vn 0.0028 0.9690 0.2471
vn -0.0624 0.8519 0.5200
vn 0.1582 0.6512 0.7423
vn 0.1563 0.9705 0.1834
vn 0.2586 0.9242 0.2809
vn 0.4826 0.8638 0.1449
vn 0.7226 0.4780 -0.4994
vn 0.6926 0.4088 -0.5942
vn 0.5965 0.4737 -0.6479
vn -0.1655 0.5044 -0.8474
vn -0.4478 0.2758 -0.8505
vn -0.3252 0.1563 -0.9327
vn -0.9237 0.3525 -0.1498
vn -0.9325 0.3382 -0.1272
vn -0.7417 0.5940 0.3114
vn -0.4886 0.2933 0.8217
vn -0.4375 0.2421 0.8660
vn 0.1578 0.6463 0.7466
vn 0.1712 0.6108 0.7731
vn 0.8871 0.1621 0.4321
vn 0.8829 0.1538 0.4437
vn 0.2898 0.0861 -0.9532
vn 0.2447 -0.5407 -0.8048
vn 0.1224 -0.6161 -0.7781
vn -0.6461 -0.1974 -0.7373
vn -0.6502 -0.1637 -0.7419
vn -0.7339 -0.2897 -0.6144
vn -0.6046 0.1908 0.7733
vn -0.6151 -0.0515 0.7868
vn -0.5926 -0.0716 0.8023
vn 0.1860 0.6278 0.7558
vn 0.2092 -0.4831 0.8502
vn 0.3303 -0.6028 0.7263
vn 0.9816 -0.0741 0.1762
vn 0.9588 -0.2258 0.1721
vn 0.6729 -0.5906 -0.4454
vn 0.3837 -0.6280 -0.6770
vn 0.1806 -0.7453 -0.6418
vn 0.1099 -0.6834 -0.7217
vn -0.3672 -0.7335 -0.5719
vn -0.4007 -0.8277 -0.3930
vn -0.4567 -0.8110 -0.3656
vn -0.4800 -0.8525 0.2070
vn -0.2203 -0.9107 0.3495
vn -0.2125 -0.8938 0.3950
vn 0.5944 -0.6835 -0.4238
vn 0.4113 -0.9081 0.0785
vn 0.1478 -0.9865 0.0699
vn 0.0851 -0.8609 0.5016
vn 0.1141 -0.8778 0.4652
vn 0.2542 -0.8297 0.4970
vt 0.181819 0.000000
vt 0.227273 0.078731
vt 0.136365 0.078731
vt 0.272728 0.157461
vt 0.318182 0.078731
vt 0.363637 0.157461
vt 0.909091 0.000000
vt 0.954545 0.078731
vt 0.863636 0.078731
vt 0.727273 0.000000
vt 0.772727 0.078731
vt 0.681818 0.078731
vt 0.545455 0.000000
vt 0.590909 0.078731
vt 0.500000 0.078731
vt 0.318182 0.236191
vt 0.090910 0.157461
vt 0.181819 0.157461
vt 0.136365 0.236191
vt 0.818182 0.157461
vt 0.909091 0.157461
vt 0.863636 0.236191
vt 0.636364 0.157461
vt 0.727273 0.157461
vt 0.681818 0.236191
vt 0.454546 0.157461
vt 0.545455 0.157461
vt 0.500000 0.236191
vt 0.227273 0.236191
vt 0.045455 0.236191
vt 0.772727 0.236191
vt 0.590909 0.236191
vt 0.409092 0.236191
vt 0.181819 0.314921
vt 0.272728 0.314921
vt 0.227273 0.393651
vt 0.000000 0.314921
vt 0.090910 0.314921
vt 0.045455 0.393651
vt 0.727273 0.314921
vt 0.818182 0.314921
vt 0.772727 0.393651
vt 0.545455 0.314921
vt 0.636364 0.314921
vt 0.590909 0.393651
vt 0.363637 0.314921
vt 0.454546 0.314921
vt 0.409092 0.393651
vt 0.500000 0.393651
vt 0.454546 0.472382
vt 0.681818 0.393651
vt 0.636364 0.472382
vt 0.863636 0.393651
vt 0.818182 0.472382
vt 0.909091 0.314921
vt 0.136365 0.393651
vt 0.090910 0.472382
vt 0.318182 0.393651
vt 0.272728 0.472382
vt 0.954545 0.236191
vt 1.000000 0.157461
vt 0.409092 0.078731
vt 0.363637 0.000000
s 0
usemtl Fieldstone
f 1/1/1 14/2/1 13/3/1
f 2/4/2 14/5/2 16/6/2
f 1/7/3 13/8/3 18/9/3
f 1/10/4 18/11/4 20/12/4
f 1/13/5 20/14/5 17/15/5
f 2/4/6 16/6/6 23/16/6
f 3/17/7 15/18/7 25/19/7
f 4/20/8 19/21/8 27/22/8
f 5/23/9 21/24/9 29/25/9
f 6/26/10 22/27/10 31/28/10
f 2/4/11 23/16/11 26/29/11
f 3/17/12 25/19/12 28/30/12
f 4/20/13 27/22/13 30/31/13
f 5/23/14 29/25/14 32/32/14
f 6/26/15 31/28/15 24/33/15
f 7/34/16 33/35/16 38/36/16
f 8/37/17 34/38/17 40/39/17
f 9/40/18 35/41/18 41/42/18
f 10/43/19 36/44/19 42/45/19
f 11/46/20 37/47/20 39/48/20
f 39/48/21 42/49/21 12/50/21
f 39/48/22 37/47/22 42/49/22
f 37/47/23 10/43/23 42/49/23
f 42/45/24 41/51/24 12/52/24
f 42/45/25 36/44/25 41/51/25
f 36/44/26 9/40/26 41/51/26
f 41/42/27 40/53/27 12/54/27
f 41/42/28 35/41/28 40/53/28
f 35/41/29 8/55/29 40/53/29
f 40/39/30 38/56/30 12/57/30
f 40/39/31 34/38/31 38/56/31
f 34/38/32 7/34/32 38/56/32
f 38/36/33 39/58/33 12/59/33
f 38/36/34 33/35/34 39/58/34
f 33/35/35 11/46/35 39/58/35
f 24/33/36 37/47/36 11/46/36
f 24/33/37 31/28/37 37/47/37
f 31/28/38 10/43/38 37/47/38
f 32/32/39 36/44/39 10/43/39
f 32/32/40 29/25/40 36/44/40
f 29/25/41 9/40/41 36/44/41
f 30/31/42 35/41/42 9/40/42
f 30/31/43 27/22/43 35/41/43
f 27/22/44 8/55/44 35/41/44
f 28/30/45 34/38/45 8/37/45
f 28/30/46 25/19/46 34/38/46
f 25/19/47 7/34/47 34/38/47
f 26/29/48 33/35/48 7/34/48
f 26/29/49 23/16/49 33/35/49
f 23/16/50 11/46/50 33/35/50
f 31/28/51 32/32/51 10/43/51
f 31/28/52 22/27/52 32/32/52
f 22/27/53 5/23/53 32/32/53
f 29/25/54 30/31/54 9/40/54
f 29/25/55 21/24/55 30/31/55
f 21/24/56 4/20/56 30/31/56
f 27/22/57 28/60/57 8/55/57
f 27/22/58 19/21/58 28/60/58
f 19/21/59 3/61/59 28/60/59
f 25/19/60 26/29/60 7/34/60
f 25/19/61 15/18/61 26/29/61
f 15/18/62 2/4/62 26/29/62
f 23/16/63 24/33/63 11/46/63
f 23/16/64 16/6/64 24/33/64
f 16/6/65 6/26/65 24/33/65
f 17/15/66 22/27/66 6/26/66
f 17/15/67 20/14/67 22/27/67
f 20/14/68 5/23/68 22/27/68
f 20/12/69 21/24/69 5/23/69
f 20/12/70 18/11/70 21/24/70
f 18/11/71 4/20/71 21/24/71
f 18/9/72 19/21/72 4/20/72
f 18/9/73 13/8/73 19/21/73
f 13/8/74 3/61/74 19/21/74
f 16/6/75 17/62/75 6/26/75
f 16/6/76 14/5/76 17/62/76
f 14/5/77 1/63/77 17/62/77
f 13/3/78 15/18/78 3/17/78
f 13/3/79 14/2/79 15/18/79
f 14/2/80 2/4/80 15/18/80
o broken_flank
v -0.220000 -0.012599 -0.180000
v 0.037796 0.140503 -0.029121
v -0.315604 0.143978 0.057030
v -0.523002 0.146373 -0.180000
v -0.315749 0.143802 -0.417390
v 0.047691 0.135917 -0.336670
v -0.111709 0.391418 0.088484
v -0.502002 0.390717 -0.014954
v -0.480813 0.380895 -0.332645
v -0.129501 0.369826 -0.404373
v 0.066853 0.367571 -0.180000
v -0.220000 0.520623 -0.180000
v -0.282418 0.014873 -0.025247
v -0.050362 0.005540 -0.080717
v -0.119849 0.109773 0.068294
v 0.077324 0.122181 -0.180000
v -0.078858 0.048284 -0.262605
v -0.397792 0.044244 -0.180000
v -0.465462 0.119361 -0.036339
v -0.280155 0.023761 -0.329142
v -0.477113 0.112685 -0.330480
v -0.122185 0.113277 -0.422504
v 0.131308 0.260000 -0.088050
v 0.124023 0.260000 -0.270043
v -0.220000 0.260000 0.099611
v -0.023100 0.260000 0.038313
v -0.543757 0.260000 -0.095261
v -0.435024 0.260000 0.058408
v -0.450544 0.260000 -0.435616
v -0.594916 0.260000 -0.278129
v -0.004896 0.260000 -0.418497
v -0.220000 0.260000 -0.446178
v -0.000255 0.385904 -0.051390
v -0.310059 0.395089 0.043274
v -0.542349 0.409419 -0.180000
v -0.324265 0.416398 -0.438494
v 0.043882 0.411193 -0.334442
v -0.162301 0.486594 -0.036947
v -0.042863 0.474961 -0.180000
v -0.364243 0.476367 -0.095580
v -0.370002 0.485005 -0.267791
v -0.160863 0.492243 -0.326618
vn 0.0024 -0.9844 0.1757
vn 0.7554 -0.5968 0.2704
vn -0.3042 -0.9515 0.0462
vn -0.3027 -0.9469 -0.1087
vn 0.2160 -0.9250 -0.3126
vn 0.8183 -0.5044 0.2756
vn -0.1019 -0.2677 0.9581
vn -0.8834 -0.3729 0.2837
vn -0.3304 -0.5081 -0.7954
vn 0.4595 -0.3450 -0.8184
vn 0.6293 -0.1132 0.7689
vn -0.1843 -0.2012 0.9621
vn -0.9012 -0.3526 0.2521
vn -0.0448 -0.2053 -0.9777
vn 0.7503 -0.1117 -0.6516
vn 0.5127 0.7708 0.3781
vn -0.1852 0.8149 0.5493
vn -0.5212 0.7760 -0.3551
vn 0.2716 0.5646 -0.7794
vn 0.6962 0.7113 0.0973
vn 0.2487 0.9647 -0.0864
vn 0.3562 0.9172 -0.1786
vn 0.1912 0.5607 -0.8056
vn -0.0973 0.9691 -0.2268
vn -0.1444 0.9042 -0.4021
vn -0.4683 0.7692 -0.4347
vn -0.2622 0.9633 0.0571
vn -0.3756 0.9249 0.0590
vn -0.4278 0.8805 0.2044
vn -0.1290 0.9517 0.2784
vn -0.2013 0.8091 0.5521
vn -0.1299 0.7639 0.6321
vn 0.2475 0.9603 0.1286
vn 0.5144 0.7753 0.3664
vn 0.6765 0.6911 0.2545
vn 0.8834 0.4687 0.0010
vn 0.7496 0.1201 -0.6509
vn 0.2573 0.4048 -0.8775
vn 0.2132 0.1892 -0.9585
vn -0.0458 0.0186 -0.9988
vn -0.5685 0.4463 -0.6911
vn -0.7496 0.5268 -0.4006
vn -0.9507 0.1598 0.2660
vn -0.9561 0.1513 0.2509
vn -0.2786 0.3575 0.8914
vn -0.1810 0.2733 0.9447
vn -0.2105 0.2534 0.9442
vn 0.7553 0.2838 0.5907
vn 0.5804 0.4000 0.7093
vn 0.7037 0.6556 0.2737
vn 0.1231 0.2628 -0.9570
vn 0.1273 -0.0747 -0.9890
vn -0.0567 -0.1958 -0.9790
vn -0.6865 0.3642 -0.6293
vn -0.6959 -0.3298 -0.6379
vn -0.7949 -0.5970 -0.1087
vn -0.8127 -0.0937 0.5751
vn -0.7985 -0.2078 0.5650
vn -0.4207 -0.4425 0.7920
vn 0.2933 -0.1619 0.9422
vn 0.2972 -0.0009 0.9548
vn 0.5425 -0.1859 0.8192
vn 0.8701 0.4916 -0.0348
vn 0.9387 -0.3426 -0.0376
vn 0.8789 -0.4311 -0.2040
vn 0.3296 -0.8401 -0.4308
vn 0.2456 -0.8730 -0.4214
vn -0.1170 -0.6105 -0.7833
vn -0.2754 -0.6211 -0.7337
vn -0.4025 -0.8945 -0.1946
vn -0.6320 -0.7748 -0.0193
vn -0.6285 -0.7705 0.1068
vn -0.4944 -0.8439 0.2084
vn -0.3674 -0.5652 0.7387
vn 0.4928 -0.8537 -0.1681
vn 0.5253 -0.8064 -0.2718
vn 0.2511 -0.9328 -0.2585
vn -0.1445 -0.5579 0.8172
vn 0.1127 -0.7887 0.6043
vn 0.5079 -0.5765 0.6401
vt 0.181819 0.000000
vt 0.227273 0.078731
vt 0.136365 0.078731
vt 0.272728 0.157461
vt 0.318182 0.078731
vt 0.363637 0.157461
vt 0.909091 0.000000
vt 0.954545 0.078731
vt 0.863636 0.078731
vt 0.727273 0.000000
vt 0.772727 0.078731
vt 0.681818 0.078731
vt 0.545455 0.000000
vt 0.590909 0.078731
vt 0.500000 0.078731
vt 0.318182 0.236191
vt 0.090910 0.157461
vt 0.181819 0.157461
vt 0.136365 0.236191
vt 0.818182 0.157461
vt 0.909091 0.157461
vt 0.863636 0.236191
vt 0.636364 0.157461
vt 0.727273 0.157461
vt 0.681818 0.236191
vt 0.454546 0.157461
vt 0.545455 0.157461
vt 0.500000 0.236191
vt 0.227273 0.236191
vt 0.045455 0.236191
vt 0.772727 0.236191
vt 0.590909 0.236191
vt 0.409092 0.236191
vt 0.181819 0.314921
vt 0.272728 0.314921
vt 0.227273 0.393651
vt 0.000000 0.314921
vt 0.090910 0.314921
vt 0.045455 0.393651
vt 0.727273 0.314921
vt 0.818182 0.314921
vt 0.772727 0.393651
vt 0.545455 0.314921
vt 0.636364 0.314921
vt 0.590909 0.393651
vt 0.363637 0.314921
vt 0.454546 0.314921
vt 0.409092 0.393651
vt 0.500000 0.393651
vt 0.454546 0.472382
vt 0.681818 0.393651
vt 0.636364 0.472382
vt 0.863636 0.393651
vt 0.818182 0.472382
vt 0.909091 0.314921
vt 0.136365 0.393651
vt 0.090910 0.472382
vt 0.318182 0.393651
vt 0.272728 0.472382
vt 0.954545 0.236191
vt 1.000000 0.157461
vt 0.409092 0.078731
vt 0.363637 0.000000
s 0
usemtl Fieldstone
f 43/64/81 56/65/81 55/66/81
f 44/67/82 56/68/82 58/69/82
f 43/70/83 55/71/83 60/72/83
f 43/73/84 60/74/84 62/75/84
f 43/76/85 62/77/85 59/78/85
f 44/67/86 58/69/86 65/79/86
f 45/80/87 57/81/87 67/82/87
f 46/83/88 61/84/88 69/85/88
f 47/86/89 63/87/89 71/88/89
f 48/89/90 64/90/90 73/91/90
f 44/67/91 65/79/91 68/92/91
f 45/80/92 67/82/92 70/93/92
f 46/83/93 69/85/93 72/94/93
f 47/86/94 71/88/94 74/95/94
f 48/89/95 73/91/95 66/96/95
f 49/97/96 75/98/96 80/99/96
f 50/100/97 76/101/97 82/102/97
f 51/103/98 77/104/98 83/105/98
f 52/106/99 78/107/99 84/108/99
f 53/109/100 79/110/100 81/111/100
f 81/111/101 84/112/101 54/113/101
f 81/111/102 79/110/102 84/112/102
f 79/110/103 52/106/103 84/112/103
f 84/108/104 83/114/104 54/115/104
f 84/108/105 78/107/105 83/114/105
f 78/107/106 51/103/106 83/114/106
f 83/105/107 82/116/107 54/117/107
f 83/105/108 77/104/108 82/116/108
f 77/104/109 50/118/109 82/116/109
f 82/102/110 80/119/110 54/120/110
f 82/102/111 76/101/111 80/119/111
f 76/101/112 49/97/112 80/119/112
f 80/99/113 81/121/113 54/122/113
f 80/99/114 75/98/114 81/121/114
f 75/98/115 53/109/115 81/121/115
f 66/96/116 79/110/116 53/109/116
f 66/96/117 73/91/117 79/110/117
f 73/91/118 52/106/118 79/110/118
f 74/95/119 78/107/119 52/106/119
f 74/95/120 71/88/120 78/107/120
f 71/88/121 51/103/121 78/107/121
f 72/94/122 77/104/122 51/103/122
f 72/94/123 69/85/123 77/104/123
f 69/85/124 50/118/124 77/104/124
f 70/93/125 76/101/125 50/100/125
f 70/93/126 67/82/126 76/101/126
f 67/82/127 49/97/127 76/101/127
f 68/92/128 75/98/128 49/97/128
f 68/92/129 65/79/129 75/98/129
f 65/79/130 53/109/130 75/98/130
f 73/91/131 74/95/131 52/106/131
f 73/91/132 64/90/132 74/95/132
f 64/90/133 47/86/133 74/95/133
f 71/88/134 72/94/134 51/103/134
f 71/88/135 63/87/135 72/94/135
f 63/87/136 46/83/136 72/94/136
f 69/85/137 70/123/137 50/118/137
f 69/85/138 61/84/138 70/123/138
f 61/84/139 45/124/139 70/123/139
f 67/82/140 68/92/140 49/97/140
f 67/82/141 57/81/141 68/92/141
f 57/81/142 44/67/142 68/92/142
f 65/79/143 66/96/143 53/109/143
f 65/79/144 58/69/144 66/96/144
f 58/69/145 48/89/145 66/96/145
f 59/78/146 64/90/146 48/89/146
f 59/78/147 62/77/147 64/90/147
f 62/77/148 47/86/148 64/90/148
f 62/75/149 63/87/149 47/86/149
f 62/75/150 60/74/150 63/87/150
f 60/74/151 46/83/151 63/87/151
f 60/72/152 61/84/152 46/83/152
f 60/72/153 55/71/153 61/84/153
f 55/71/154 45/124/154 61/84/154
f 58/69/155 59/125/155 48/89/155
f 58/69/156 56/68/156 59/125/156
f 56/68/157 43/126/157 59/125/157
f 55/66/158 57/81/158 45/80/158
f 55/66/159 56/65/159 57/81/159
f 56/65/160 44/67/160 57/81/160
o moss_cap
v -0.240000 0.641857 -0.160000
v -0.049858 0.687582 -0.055201
v -0.313586 0.687153 0.011812
v -0.496529 0.684617 -0.160000
v -0.324245 0.682396 -0.356698
v -0.017237 0.682020 -0.282779
v -0.157236 0.756943 0.033240
v -0.449937 0.755793 -0.044291
v -0.445961 0.755115 -0.273518
v -0.162461 0.754611 -0.341040
v 0.007837 0.754185 -0.160000
v -0.240000 0.797187 -0.160000
vn 0.0023 -0.9995 0.0330
vn 0.6513 -0.5152 0.5571
vn -0.2180 -0.5344 0.8166
vn -0.9041 -0.4272 0.0131
vn -0.2515 -0.3950 -0.8836
vn 0.7418 -0.3650 -0.5626
vn 0.2652 0.3593 0.8948
vn -0.6875 0.3991 0.6067
vn -0.6821 0.4745 -0.5565
vn 0.2204 0.5322 -0.8174
vn 0.8921 0.4470 0.0666
vn 0.0024 0.9999 -0.0110
vt 0.181819 0.000000
vt 0.272728 0.157461
vt 0.090910 0.157461
vt 0.363637 0.000000
vt 0.454546 0.157461
vt 0.909091 0.000000
vt 1.000000 0.157461
vt 0.818182 0.157461
vt 0.727273 0.000000
vt 0.636364 0.157461
vt 0.545455 0.000000
vt 0.363637 0.314921
vt 0.181819 0.314921
vt 0.909091 0.314921
vt 0.727273 0.314921
vt 0.545455 0.314921
vt 0.000000 0.314921
vt 0.272728 0.472382
vt 0.090910 0.472382
vt 0.818182 0.472382
vt 0.636364 0.472382
vt 0.454546 0.472382
s 1
usemtl Moss
f 85/127/161 86/128/162 87/129/163
f 86/128/162 85/130/161 90/131/166
f 85/132/161 87/133/163 88/134/164
f 85/135/161 88/134/164 89/136/165
f 85/137/161 89/136/165 90/131/166
f 86/128/162 90/131/166 95/138/171
f 87/129/163 86/128/162 91/139/167
f 88/134/164 87/133/163 92/140/168
f 89/136/165 88/134/164 93/141/169
f 90/131/166 89/136/165 94/142/170
f 86/128/162 95/138/171 91/139/167
f 87/129/163 91/139/167 92/143/168
f 88/134/164 92/140/168 93/141/169
f 89/136/165 93/141/169 94/142/170
f 90/131/166 94/142/170 95/138/171
f 91/139/167 95/138/171 96/144/172
f 92/143/168 91/139/167 96/145/172
f 93/141/169 92/140/168 96/146/172
f 94/142/170 93/141/169 96/147/172
f 95/138/171 94/142/170 96/148/172
o moss_cap.001
v 0.270000 0.602922 0.120000
v 0.453219 0.642254 0.219836
v 0.196361 0.640282 0.289980
v 0.039636 0.641606 0.120000
v 0.205570 0.645249 -0.028724
v 0.425223 0.648022 0.035419
v 0.330200 0.712470 0.258960
v 0.097212 0.715597 0.214152
v 0.083219 0.718480 0.018223
v 0.341996 0.718832 -0.046189
v 0.491420 0.716903 0.120000
v 0.270000 0.757678 0.120000
vn 0.0206 -0.9991 -0.0384
vn 0.6998 -0.4153 0.5813
vn -0.2224 -0.3794 0.8981
vn -0.9030 -0.4295 0.0095
vn -0.1945 -0.5518 -0.8110
vn 0.6020 -0.5976 -0.5296
vn 0.2134 0.5923 0.7770
vn -0.6255 0.5464 0.5570
vn -0.6780 0.4378 -0.5904
vn 0.2844 0.3719 -0.8836
vn 0.9132 0.4058 -0.0368
vn 0.0036 0.9993 0.0385
vt 0.181819 0.000000
vt 0.272728 0.157461
vt 0.090910 0.157461
vt 0.363637 0.000000
vt 0.454546 0.157461
vt 0.909091 0.000000
vt 1.000000 0.157461
vt 0.818182 0.157461
vt 0.727273 0.000000
vt 0.636364 0.157461
vt 0.545455 0.000000
vt 0.363637 0.314921
vt 0.181819 0.314921
vt 0.909091 0.314921
vt 0.727273 0.314921
vt 0.545455 0.314921
vt 0.000000 0.314921
vt 0.272728 0.472382
vt 0.090910 0.472382
vt 0.818182 0.472382
vt 0.636364 0.472382
vt 0.454546 0.472382
s 1
usemtl Moss
f 97/149/173 98/150/174 99/151/175
f 98/150/174 97/152/173 102/153/178
f 97/154/173 99/155/175 100/156/176
f 97/157/173 100/156/176 101/158/177
f 97/159/173 101/158/177 102/153/178
f 98/150/174 102/153/178 107/160/183
f 99/151/175 98/150/174 103/161/179
f 100/156/176 99/155/175 104/162/180
f 101/158/177 100/156/176 105/163/181
f 102/153/178 101/158/177 106/164/182
f 98/150/174 107/160/183 103/161/179
f 99/151/175 103/161/179 104/165/180
f 100/156/176 104/162/180 105/163/181
f 101/158/177 105/163/181 106/164/182
f 102/153/178 106/164/182 107/160/183
f 103/161/179 107/160/183 108/166/184
f 104/165/180 103/161/179 108/167/184
f 105/163/181 104/162/180 108/168/184
f 106/164/182 105/163/181 108/169/184
f 107/160/183 106/164/182 108/170/184
o moss_cap.002
v 0.040000 0.629858 -0.310000
v 0.203120 0.674934 -0.217251
v -0.020584 0.675903 -0.164075
v -0.154242 0.676219 -0.310000
v -0.022346 0.674911 -0.460170
v 0.214773 0.672429 -0.409374
v 0.109569 0.749154 -0.142432
v -0.136796 0.748006 -0.209475
v -0.121263 0.744667 -0.401693
v 0.096786 0.741960 -0.446779
v 0.226409 0.742419 -0.310000
v 0.040000 0.789942 -0.310000
vn -0.0142 -0.9998 0.0118
vn 0.7161 -0.4620 0.5231
vn -0.2351 -0.5608 0.7938
vn -0.8558 -0.5163 -0.0337
vn -0.2403 -0.4235 -0.8734
vn 0.7322 -0.3542 -0.5817
vn 0.2764 0.3993 0.8742
vn -0.7382 0.3819 0.5560
vn -0.6795 0.4475 -0.5813
vn 0.2127 0.5528 -0.8057
vn 0.8366 0.5478 -0.0072
vn 0.0181 0.9988 -0.0451
vt 0.181819 0.000000
vt 0.272728 0.157461
vt 0.090910 0.157461
vt 0.363637 0.000000
vt 0.454546 0.157461
vt 0.909091 0.000000
vt 1.000000 0.157461
vt 0.818182 0.157461
vt 0.727273 0.000000
vt 0.636364 0.157461
vt 0.545455 0.000000
vt 0.363637 0.314921
vt 0.181819 0.314921
vt 0.909091 0.314921
vt 0.727273 0.314921
vt 0.545455 0.314921
vt 0.000000 0.314921
vt 0.272728 0.472382
vt 0.090910 0.472382
vt 0.818182 0.472382
vt 0.636364 0.472382
vt 0.454546 0.472382
s 1
usemtl Moss
f 109/171/185 110/172/186 111/173/187
f 110/172/186 109/174/185 114/175/190
f 109/176/185 111/177/187 112/178/188
f 109/179/185 112/178/188 113/180/189
f 109/181/185 113/180/189 114/175/190
f 110/172/186 114/175/190 119/182/195
f 111/173/187 110/172/186 115/183/191
f 112/178/188 111/177/187 116/184/192
f 113/180/189 112/178/188 117/185/193
f 114/175/190 113/180/189 118/186/194
f 110/172/186 119/182/195 115/183/191
f 111/173/187 115/183/191 116/187/192
f 112/178/188 116/184/192 117/185/193
f 113/180/189 117/185/193 118/186/194
f 114/175/190 118/186/194 119/182/195
f 115/183/191 119/182/195 120/188/196
f 116/187/192 115/183/191 120/189/196
f 117/185/193 116/184/192 120/190/196
f 118/186/194 117/185/193 120/191/196
f 119/182/195 118/186/194 120/192/196
