# Blender 4.5.10 LTS
# www.blender.org
mtllib NatureGrass.mtl
o curved_grass_blade
v 0.000000 0.002875 -0.031460
v 0.000000 0.002875 -0.018540
v 0.029529 0.034500 -0.047457
v 0.029529 0.034500 -0.009457
v 0.066069 0.065550 -0.041302
v 0.066069 0.065550 -0.015462
v 0.093380 0.085100 -0.026140
v 0.093380 0.085100 -0.023860
v 0.000000 -0.007125 -0.031460
v 0.000000 -0.007125 -0.018540
v 0.029529 0.024500 -0.047457
v 0.029529 0.024500 -0.009457
v 0.066069 0.055550 -0.041302
v 0.066069 0.055550 -0.015462
v 0.093380 0.075100 -0.026140
v 0.093380 0.075100 -0.023860
vn -0.7309 0.6825 -0.0000
vn 0.7309 -0.6825 -0.0000
vn -0.4763 -0.0000 -0.8793
vn -0.2940 -0.0000 0.9558
vn -0.6475 0.7620 -0.0000
vn 0.6475 -0.7620 -0.0000
vn 0.1661 -0.0000 -0.9861
vn 0.1622 -0.0000 0.9868
vn -0.5821 0.8131 -0.0000
vn 0.5821 -0.8131 -0.0000
vn 0.4854 -0.0000 -0.8743
vn 0.2939 -0.0000 0.9558
vn 1.0000 -0.0000 -0.0000
vn -1.0000 -0.0000 -0.0000
s 0
usemtl Leaf
f 1//1 2//1 4//1 3//1
f 9//2 11//2 12//2 10//2
f 1//3 3//3 11//3 9//3
f 2//4 10//4 12//4 4//4
f 3//5 4//5 6//5 5//5
f 11//6 13//6 14//6 12//6
f 3//7 5//7 13//7 11//7
f 4//8 12//8 14//8 6//8
f 5//9 6//9 8//9 7//9
f 13//10 15//10 16//10 14//10
f 5//11 7//11 15//11 13//11
f 6//12 14//12 16//12 8//12
f 1//13 2//13 10//13 9//13
f 7//14 15//14 16//14 8//14
o curved_grass_blade.001
v 0.089476 0.003925 0.160640
v 0.093099 0.003925 0.146126
v 0.045712 0.047100 0.167687
v 0.056369 0.047100 0.124997
v -0.002683 0.089490 0.153938
v 0.004564 0.089490 0.124909
v -0.035926 0.116180 0.132740
v -0.035287 0.116180 0.130178
v 0.089476 -0.006075 0.160640
v 0.093099 -0.006075 0.146126
v 0.045712 0.037100 0.167687
v 0.056369 0.037100 0.124997
v -0.002683 0.079490 0.153938
v 0.004564 0.079490 0.124909
v -0.035926 0.106180 0.132740
v -0.035287 0.106180 0.130178
vn 0.7055 0.6864 0.1761
vn -0.7055 -0.6864 -0.1761
vn 0.1590 -0.0000 0.9873
vn 0.4986 -0.0000 -0.8668
vn 0.6254 0.7646 0.1561
vn -0.6254 -0.7646 -0.1561
vn -0.2733 -0.0000 0.9619
vn 0.0017 -0.0000 -1.0000
vn 0.5637 0.8139 0.1407
vn -0.5637 -0.8139 -0.1407
vn -0.5377 -0.0000 0.8432
vn -0.1311 -0.0000 -0.9914
vn -0.9702 -0.0000 -0.2422
vn 0.9702 -0.0000 0.2422
s 0
usemtl VergeGrass
f 17//15 18//15 20//15 19//15
f 25//16 27//16 28//16 26//16
f 17//17 19//17 27//17 25//17
f 18//18 26//18 28//18 20//18
f 19//19 20//19 22//19 21//19
f 27//20 29//20 30//20 28//20
f 19//21 21//21 29//21 27//21
f 20//22 28//22 30//22 22//22
f 21//23 22//23 24//23 23//23
f 29//24 31//24 32//24 30//24
f 21//25 23//25 31//25 29//25
f 22//26 30//26 32//26 24//26
f 17//27 18//27 26//27 25//27
f 23//28 31//28 32//28 24//28
o curved_grass_blade.002
v -0.273351 0.004975 -0.223776
v -0.289123 0.004975 -0.217433
v -0.243155 0.059700 -0.179639
v -0.289545 0.059700 -0.160985
v -0.230601 0.113430 -0.115447
v -0.262147 0.113430 -0.102762
v -0.225726 0.147260 -0.066189
v -0.228510 0.147260 -0.065070
v -0.273351 -0.005025 -0.223776
v -0.289123 -0.005025 -0.217433
v -0.243155 0.049700 -0.179639
v -0.289545 0.049700 -0.160985
v -0.230601 0.103430 -0.115447
v -0.262147 0.103430 -0.102762
v -0.225726 0.137260 -0.066189
v -0.228510 0.137260 -0.065070
vn -0.2699 0.6903 -0.6713
vn 0.2699 -0.6903 0.6713
vn 0.8253 -0.0000 -0.5646
vn -1.0000 -0.0000 -0.0075
vn -0.2394 0.7671 -0.5952
vn 0.2394 -0.7671 0.5952
vn 0.9814 -0.0000 -0.1919
vn -0.9048 -0.0000 0.4258
vn -0.2164 0.8146 -0.5381
vn 0.2164 -0.8146 0.5381
vn 0.9951 -0.0000 -0.0985
vn -0.7461 -0.0000 0.6658
vn 0.3731 -0.0000 0.9278
vn -0.3731 -0.0000 -0.9278
s 0
usemtl VergeGrass
f 33//29 34//29 36//29 35//29
f 41//30 43//30 44//30 42//30
f 33//31 35//31 43//31 41//31
f 34//32 42//32 44//32 36//32
f 35//33 36//33 38//33 37//33
f 43//34 45//34 46//34 44//34
f 35//35 37//35 45//35 43//35
f 36//36 44//36 46//36 38//36
f 37//37 38//37 40//37 39//37
f 45//38 47//38 48//38 46//38
f 37//39 39//39 47//39 45//39
f 38//40 46//40 48//40 40//40
f 33//41 34//41 42//41 41//41
f 39//42 47//42 48//42 40//42
o curved_grass_blade.003
v 0.098810 0.003225 0.033688
v 0.116579 0.003225 0.040528
v 0.089563 0.038700 -0.006529
v 0.141825 0.038700 0.013588
v 0.114163 0.073530 -0.042033
v 0.149701 0.073530 -0.028353
v 0.146431 0.095460 -0.062710
v 0.149567 0.095460 -0.061503
v 0.098810 -0.006775 0.033688
v 0.116579 -0.006775 0.040528
v 0.089563 0.028700 -0.006529
v 0.141825 0.028700 0.013588
v 0.114163 0.063530 -0.042033
v 0.149701 0.063530 -0.028353
v 0.146431 0.085460 -0.062710
v 0.149567 0.085460 -0.061503
vn -0.2586 0.6942 0.6718
vn 0.2586 -0.6942 -0.6718
vn -0.9746 -0.0000 0.2241
vn 0.7297 -0.0000 0.6838
vn -0.2294 0.7695 0.5960
vn 0.2294 -0.7695 -0.5960
vn -0.8220 -0.0000 -0.5695
vn 0.9828 -0.0000 0.1846
vn -0.2080 0.8154 0.5403
vn 0.2080 -0.8154 -0.5403
vn -0.5395 -0.0000 -0.8420
vn 1.0000 -0.0000 -0.0040
vn 0.3592 -0.0000 -0.9332
vn -0.3592 -0.0000 0.9332
s 0
usemtl VergeGrass
f 49//43 50//43 52//43 51//43
f 57//44 59//44 60//44 58//44
f 49//45 51//45 59//45 57//45
f 50//46 58//46 60//46 52//46
f 51//47 52//47 54//47 53//47
f 59//48 61//48 62//48 60//48
f 51//49 53//49 61//49 59//49
f 52//50 60//50 62//50 54//50
f 53//51 54//51 56//51 55//51
f 61//52 63//52 64//52 62//52
f 53//53 55//53 63//53 61//53
f 54//54 62//54 64//54 56//54
f 49//55 50//55 58//55 57//55
f 55//56 63//56 64//56 56//56
o curved_grass_blade.004
v -0.203281 0.004275 0.015662
v -0.214789 0.004275 0.009788
v -0.209842 0.051300 0.063766
v -0.243689 0.051300 0.046491
v -0.237279 0.097470 0.112712
v -0.260295 0.097470 0.100966
v -0.266908 0.126540 0.143687
v -0.268939 0.126540 0.142650
v -0.203281 -0.005725 0.015662
v -0.214789 -0.005725 0.009788
v -0.209842 0.041300 0.063766
v -0.243689 0.041300 0.046491
v -0.237279 0.087470 0.112712
v -0.260295 0.087470 0.100966
v -0.266908 0.116540 0.143687
v -0.268939 0.116540 0.142650
vn 0.3256 0.6979 -0.6379
vn -0.3256 -0.6979 0.6379
vn 0.9908 -0.0000 0.1351
vn -0.7857 -0.0000 -0.6186
vn 0.2890 0.7720 -0.5662
vn -0.2890 -0.7720 0.5662
vn 0.8723 -0.0000 0.4890
vn -0.9565 -0.0000 -0.2916
vn 0.2627 0.8161 -0.5147
vn -0.2627 -0.8161 0.5147
vn 0.7226 -0.0000 0.6912
vn -0.9792 -0.0000 -0.2031
vn -0.4546 -0.0000 0.8907
vn 0.4546 -0.0000 -0.8907
s 0
usemtl Leaf
f 65//57 66//57 68//57 67//57
f 73//58 75//58 76//58 74//58
f 65//59 67//59 75//59 73//59
f 66//60 74//60 76//60 68//60
f 67//61 68//61 70//61 69//61
f 75//62 77//62 78//62 76//62
f 67//63 69//63 77//63 75//63
f 68//64 76//64 78//64 70//64
f 69//65 70//65 72//65 71//65
f 77//66 79//66 80//66 78//66
f 69//67 71//67 79//67 77//67
f 70//68 78//68 80//68 72//68
f 65//69 66//69 74//69 73//69
f 71//70 79//70 80//70 72//70
o curved_grass_blade.005
v -0.020827 0.005325 0.022897
v -0.025656 0.005325 0.037056
v 0.034507 0.063900 0.030087
v 0.020304 0.063900 0.071731
v 0.094635 0.121410 0.063449
v 0.084977 0.121410 0.091768
v 0.137985 0.157620 0.093051
v 0.137133 0.157620 0.095550
v -0.020827 -0.004675 0.022897
v -0.025656 -0.004675 0.037056
v 0.034507 0.053900 0.030087
v 0.020304 0.053900 0.071731
v 0.094635 0.111410 0.063449
v 0.084977 0.111410 0.091768
v 0.137985 0.147620 0.093051
v 0.137133 0.147620 0.095550
vn -0.6918 0.6825 -0.2359
vn 0.6918 -0.6825 0.2359
vn 0.1289 -0.0000 -0.9917
vn -0.6023 -0.0000 0.7983
vn -0.6129 0.7620 -0.2090
vn 0.6129 -0.7620 0.2090
vn 0.4852 -0.0000 -0.8744
vn -0.2959 -0.0000 0.9552
vn -0.5509 0.8131 -0.1879
vn 0.5509 -0.8131 0.1879
vn 0.5639 -0.0000 -0.8258
vn -0.0723 -0.0000 0.9974
vn 0.9465 -0.0000 0.3228
vn -0.9465 -0.0000 -0.3228
s 0
usemtl VergeGrass
f 81//71 82//71 84//71 83//71
f 89//72 91//72 92//72 90//72
f 81//73 83//73 91//73 89//73
f 82//74 90//74 92//74 84//74
f 83//75 84//75 86//75 85//75
f 91//76 93//76 94//76 92//76
f 83//77 85//77 93//77 91//77
f 84//78 92//78 94//78 86//78
f 85//79 86//79 88//79 87//79
f 93//80 95//80 96//80 94//80
f 85//81 87//81 95//81 93//81
f 86//82 94//82 96//82 88//82
f 81//83 82//83 90//83 89//83
f 87//84 95//84 96//84 88//84
o curved_grass_blade.006
v 0.168819 0.003575 -0.079798
v 0.185399 0.003575 -0.083553
v 0.139643 0.042900 -0.111250
v 0.188408 0.042900 -0.122295
v 0.133329 0.081510 -0.156780
v 0.166489 0.081510 -0.164290
v 0.142724 0.105820 -0.193824
v 0.145650 0.105820 -0.194487
v 0.168819 -0.006425 -0.079798
v 0.185399 -0.006425 -0.083553
v 0.139643 0.032900 -0.111250
v 0.188408 0.032900 -0.122295
v 0.133329 0.071510 -0.156780
v 0.166489 0.071510 -0.164290
v 0.142724 0.095820 -0.193824
v 0.145650 0.095820 -0.194487
vn 0.1606 0.6864 0.7092
vn -0.1606 -0.6864 -0.7092
vn -0.7331 -0.0000 0.6801
vn 0.9970 -0.0000 0.0774
vn 0.1424 0.7646 0.6286
vn -0.1424 -0.7646 -0.6286
vn -0.9905 -0.0000 0.1374
vn 0.8865 -0.0000 -0.4627
vn 0.1283 0.8139 0.5667
vn -0.1283 -0.8139 -0.5667
vn -0.9693 -0.0000 -0.2458
vn 0.8230 -0.0000 -0.5680
vn -0.2209 -0.0000 -0.9753
vn 0.2209 -0.0000 0.9753
s 0
usemtl VergeGrass
f 97//85 98//85 100//85 99//85
f 105//86 107//86 108//86 106//86
f 97//87 99//87 107//87 105//87
f 98//88 106//88 108//88 100//88
f 99//89 100//89 102//89 101//89
f 107//90 109//90 110//90 108//90
f 99//91 101//91 109//91 107//91
f 100//92 108//92 110//92 102//92
f 101//93 102//93 104//93 103//93
f 109//94 111//94 112//94 110//94
f 101//95 103//95 111//95 109//95
f 102//96 110//96 112//96 104//96
f 97//97 98//97 106//97 105//97
f 103//98 111//98 112//98 104//98
o curved_grass_blade.007
v -0.332686 0.004625 0.010329
v -0.351020 0.004625 0.005193
v -0.330394 0.055500 0.061382
v -0.384318 0.055500 0.046275
v -0.350999 0.105450 0.117630
v -0.387668 0.105450 0.107357
v -0.374320 0.136900 0.156974
v -0.377555 0.136900 0.156068
v -0.332686 -0.005375 0.010329
v -0.351020 -0.005375 0.005193
v -0.330394 0.045500 0.061382
v -0.384318 0.045500 0.046275
v -0.350999 0.095450 0.117630
v -0.387668 0.095450 0.107357
v -0.374320 0.126900 0.156974
v -0.377555 0.126900 0.156068
vn 0.1952 0.6903 -0.6967
vn -0.1952 -0.6903 0.6967
vn 0.9990 -0.0000 -0.0449
vn -0.7769 -0.0000 -0.6297
vn 0.1731 0.7671 -0.6178
vn -0.1731 -0.7671 0.6178
vn 0.9390 -0.0000 0.3440
vn -0.9985 -0.0000 -0.0548
vn 0.1565 0.8146 -0.5585
vn -0.1565 -0.8146 0.5585
vn 0.8602 -0.0000 0.5099
vn -0.9791 -0.0000 0.2033
vn -0.2698 -0.0000 0.9629
vn 0.2698 -0.0000 -0.9629
s 0
usemtl VergeGrass
f 113//99 114//99 116//99 115//99
f 121//100 123//100 124//100 122//100
f 113//101 115//101 123//101 121//101
f 114//102 122//102 124//102 116//102
f 115//103 116//103 118//103 117//103
f 123//104 125//104 126//104 124//104
f 115//105 117//105 125//105 123//105
f 116//106 124//106 126//106 118//106
f 117//107 118//107 120//107 119//107
f 125//108 127//108 128//108 126//108
f 117//109 119//109 127//109 125//109
f 118//110 126//110 128//110 120//110
f 113//111 114//111 122//111 121//111
f 119//112 127//112 128//112 120//112
o curved_grass_blade.008
v 0.095636 0.002875 0.045283
v 0.107670 0.002875 0.049985
v 0.098699 0.034500 0.013736
v 0.134093 0.034500 0.027567
v 0.119970 0.065550 -0.018123
v 0.144037 0.065550 -0.008718
v 0.138900 0.085100 -0.040290
v 0.141024 0.085100 -0.039460
v 0.095636 -0.007125 0.045283
v 0.107670 -0.007125 0.049985
v 0.098699 0.024500 0.013736
v 0.134093 0.024500 0.027567
v 0.119970 0.055550 -0.018123
v 0.144037 0.055550 -0.008718
v 0.138900 0.075100 -0.040290
v 0.141024 0.075100 -0.039460
vn -0.2620 0.6942 0.6705
vn 0.2620 -0.6942 -0.6705
vn -0.9953 -0.0000 -0.0966
vn 0.6470 -0.0000 0.7625
vn -0.2324 0.7695 0.5948
vn 0.2324 -0.7695 -0.5948
vn -0.8317 -0.0000 -0.5553
vn 0.9644 -0.0000 0.2643
vn -0.2107 0.8154 0.5392
vn 0.2107 -0.8154 -0.5392
vn -0.7604 -0.0000 -0.6494
vn 0.9952 -0.0000 -0.0976
vn 0.3640 -0.0000 -0.9314
vn -0.3640 -0.0000 0.9314
s 0
usemtl Leaf
f 129//113 130//113 132//113 131//113
f 137//114 139//114 140//114 138//114
f 129//115 131//115 139//115 137//115
f 130//116 138//116 140//116 132//116
f 131//117 132//117 134//117 133//117
f 139//118 141//118 142//118 140//118
f 131//119 133//119 141//119 139//119
f 132//120 140//120 142//120 134//120
f 133//121 134//121 136//121 135//121
f 141//122 143//122 144//122 142//122
f 133//123 135//123 143//123 141//123
f 134//124 142//124 144//124 136//124
f 129//125 130//125 138//125 137//125
f 135//126 143//126 144//126 136//126
o curved_grass_blade.009
v -0.095424 0.003925 -0.187624
v -0.102137 0.003925 -0.200993
v -0.125349 0.047100 -0.153457
v -0.145096 0.047100 -0.192777
v -0.175694 0.089490 -0.138998
v -0.189122 0.089490 -0.165736
v -0.217475 0.116180 -0.138197
v -0.218659 0.116180 -0.140556
v -0.095424 -0.006075 -0.187624
v -0.102137 -0.006075 -0.200993
v -0.125349 0.037100 -0.153457
v -0.145096 0.037100 -0.192777
v -0.175694 0.079490 -0.138998
v -0.189122 0.079490 -0.165736
v -0.217475 0.106180 -0.138197
v -0.218659 0.106180 -0.140556
vn 0.6400 0.6979 -0.3214
vn -0.6400 -0.6979 0.3214
vn 0.7523 -0.0000 0.6589
vn -0.1879 -0.0000 -0.9822
vn 0.5681 0.7720 -0.2853
vn -0.5681 -0.7720 0.2853
vn 0.2760 -0.0000 0.9611
vn -0.5234 -0.0000 -0.8521
vn 0.5164 0.8161 -0.2593
vn -0.5164 -0.8161 0.2593
vn 0.0192 -0.0000 0.9998
vn -0.6487 -0.0000 -0.7610
vn -0.8936 -0.0000 0.4488
vn 0.8936 -0.0000 -0.4488
s 0
usemtl VergeGrass
f 145//127 146//127 148//127 147//127
f 153//128 155//128 156//128 154//128
f 145//129 147//129 155//129 153//129
f 146//130 154//130 156//130 148//130
f 147//131 148//131 150//131 149//131
f 155//132 157//132 158//132 156//132
f 147//133 149//133 157//133 155//133
f 148//134 156//134 158//134 150//134
f 149//135 150//135 152//135 151//135
f 157//136 159//136 160//136 158//136
f 149//137 151//137 159//137 157//137
f 150//138 158//138 160//138 152//138
f 145//139 146//139 154//139 153//139
f 151//140 159//140 160//140 152//140
o curved_grass_blade.010
v -0.049364 0.004975 -0.008683
v -0.066215 0.004975 -0.006436
v -0.031342 0.059700 0.040463
v -0.080903 0.059700 0.047074
v -0.034158 0.113430 0.104629
v -0.067860 0.113430 0.109124
v -0.040731 0.147260 0.153184
v -0.043705 0.147260 0.153581
v -0.049364 -0.005025 -0.008683
v -0.066215 -0.005025 -0.006436
v -0.031342 0.049700 0.040463
v -0.080903 0.049700 0.047074
v -0.034158 0.103430 0.104629
v -0.067860 0.103430 0.109124
v -0.040731 0.137260 0.153184
v -0.043705 0.137260 0.153581
vn -0.0966 0.6825 -0.7245
vn 0.0966 -0.6825 0.7245
vn 0.9389 -0.0000 -0.3443
vn -0.9643 -0.0000 -0.2647
vn -0.0856 0.7620 -0.6419
vn 0.0856 -0.7620 0.6419
vn 0.9990 -0.0000 0.0439
vn -0.9786 -0.0000 0.2057
vn -0.0770 0.8131 -0.5770
vn 0.0770 -0.8131 0.5770
vn 0.9910 -0.0000 0.1341
vn -0.8787 -0.0000 0.4774
vn 0.1322 -0.0000 0.9912
vn -0.1322 -0.0000 -0.9912
s 0
usemtl VergeGrass
f 161//141 162//141 164//141 163//141
f 169//142 171//142 172//142 170//142
f 161//143 163//143 171//143 169//143
f 162//144 170//144 172//144 164//144
f 163//145 164//145 166//145 165//145
f 171//146 173//146 174//146 172//146
f 163//147 165//147 173//147 171//147
f 164//148 172//148 174//148 166//148
f 165//149 166//149 168//149 167//149
f 173//150 175//150 176//150 174//150
f 165//151 167//151 175//151 173//151
f 166//152 174//152 176//152 168//152
f 161//153 162//153 170//153 169//153
f 167//154 175//154 176//154 168//154
o curved_grass_blade.011
v 0.197474 0.003225 -0.065036
v 0.216362 0.003225 -0.062639
v 0.184014 0.038700 -0.100499
v 0.239569 0.038700 -0.093448
v 0.204692 0.073530 -0.139522
v 0.242469 0.073530 -0.134727
v 0.229924 0.095460 -0.167286
v 0.233257 0.095460 -0.166863
v 0.197474 -0.006775 -0.065036
v 0.216362 -0.006775 -0.062639
v 0.184014 0.028700 -0.100499
v 0.239569 0.028700 -0.093448
v 0.204692 0.063530 -0.139522
v 0.242469 0.063530 -0.134727
v 0.229924 0.085460 -0.167286
v 0.233257 0.085460 -0.166863
vn -0.0916 0.6864 0.7214
vn 0.0916 -0.6864 -0.7214
vn -0.9349 -0.0000 0.3548
vn 0.7988 -0.0000 0.6017
vn -0.0811 0.7646 0.6394
vn 0.0811 -0.7646 -0.6394
vn -0.8836 -0.0000 -0.4682
vn 0.9975 -0.0000 0.0701
vn -0.0731 0.8139 0.5764
vn 0.0732 -0.8139 -0.5764
vn -0.7400 -0.0000 -0.6726
vn 0.9613 -0.0000 -0.2755
vn 0.1259 -0.0000 -0.9920
vn -0.1259 -0.0000 0.9920
s 0
usemtl VergeGrass
f 177//155 178//155 180//155 179//155
f 185//156 187//156 188//156 186//156
f 177//157 179//157 187//157 185//157
f 178//158 186//158 188//158 180//158
f 179//159 180//159 182//159 181//159
f 187//160 189//160 190//160 188//160
f 179//161 181//161 189//161 187//161
f 180//162 188//162 190//162 182//162
f 181//163 182//163 184//163 183//163
f 189//164 191//164 192//164 190//164
f 181//165 183//165 191//165 189//165
f 182//166 190//166 192//166 184//166
f 177//167 178//167 186//167 185//167
f 183//168 191//168 192//168 184//168
o curved_grass_blade.012
v -0.278419 0.004275 0.236285
v -0.290524 0.004275 0.231768
v -0.278915 0.051300 0.283990
v -0.314517 0.051300 0.270705
v -0.303370 0.097470 0.333784
v -0.327580 0.097470 0.324751
v -0.331603 0.126540 0.366834
v -0.333739 0.126540 0.366037
v -0.278419 -0.005725 0.236285
v -0.290524 -0.005725 0.231768
v -0.278915 0.041300 0.283990
v -0.314517 0.041300 0.270705
v -0.303370 0.087470 0.333784
v -0.327580 0.087470 0.324751
v -0.331603 0.116540 0.366834
v -0.333739 0.116540 0.366037
vn 0.2529 0.6903 -0.6778
vn -0.2529 -0.6903 0.6778
vn 0.9999 -0.0000 0.0104
vn -0.8513 -0.0000 -0.5246
vn 0.2243 0.7671 -0.6011
vn -0.2243 -0.7671 0.6011
vn 0.8976 -0.0000 0.4408
vn -0.9720 -0.0000 -0.2349
vn 0.2028 0.8146 -0.5434
vn -0.2028 -0.8146 0.5434
vn 0.7603 -0.0000 0.6495
vn -0.9891 -0.0000 -0.1476
vn -0.3496 -0.0000 0.9369
vn 0.3496 -0.0000 -0.9369
s 0
usemtl Leaf
f 193//169 194//169 196//169 195//169
f 201//170 203//170 204//170 202//170
f 193//171 195//171 203//171 201//171
f 194//172 202//172 204//172 196//172
f 195//173 196//173 198//173 197//173
f 203//174 205//174 206//174 204//174
f 195//175 197//175 205//175 203//175
f 196//176 204//176 206//176 198//176
f 197//177 198//177 200//177 199//177
f 205//178 207//178 208//178 206//178
f 197//179 199//179 207//179 205//179
f 198//180 206//180 208//180 200//180
f 193//181 194//181 202//181 201//181
f 199//182 207//182 208//182 200//182
o curved_grass_blade.013
v 0.050826 0.005325 -0.140486
v 0.054964 0.005325 -0.126109
v 0.101810 0.063900 -0.167577
v 0.113978 0.063900 -0.125293
v 0.169627 0.121410 -0.182504
v 0.177901 0.121410 -0.153751
v 0.221197 0.157620 -0.187725
v 0.221927 0.157620 -0.185188
v 0.050826 -0.004675 -0.140486
v 0.054964 -0.004675 -0.126109
v 0.101810 0.053900 -0.167577
v 0.113978 0.053900 -0.125293
v 0.169627 0.111410 -0.182504
v 0.177901 0.111410 -0.153751
v 0.221197 0.147620 -0.187725
v 0.221927 0.147620 -0.185188
vn -0.6917 0.6942 0.1991
vn 0.6917 -0.6942 -0.1991
vn -0.4692 -0.0000 -0.8831
vn -0.0138 -0.0000 0.9999
vn -0.6137 0.7695 0.1766
vn 0.6137 -0.7695 -0.1766
vn -0.2150 -0.0000 -0.9766
vn 0.4067 -0.0000 0.9136
vn -0.5563 0.8154 0.1601
vn 0.5563 -0.8154 -0.1601
vn -0.1007 -0.0000 -0.9949
vn 0.5811 -0.0000 0.8138
vn 0.9610 -0.0000 -0.2766
vn -0.9610 -0.0000 0.2766
s 0
usemtl VergeGrass
f 209//183 210//183 212//183 211//183
f 217//184 219//184 220//184 218//184
f 209//185 211//185 219//185 217//185
f 210//186 218//186 220//186 212//186
f 211//187 212//187 214//187 213//187
f 219//188 221//188 222//188 220//188
f 211//189 213//189 221//189 219//189
f 212//190 220//190 222//190 214//190
f 213//191 214//191 216//191 215//191
f 221//192 223//192 224//192 222//192
f 213//193 215//193 223//193 221//193
f 214//194 222//194 224//194 216//194
f 209//195 210//195 218//195 217//195
f 215//196 223//196 224//196 216//196
o curved_grass_blade.014
v 0.052151 0.003575 0.309888
v 0.060094 0.003575 0.294858
v 0.011243 0.042900 0.305273
v 0.034606 0.042900 0.261067
v -0.023568 0.081510 0.270791
v -0.007681 0.081510 0.240731
v -0.045234 0.105820 0.238304
v -0.043832 0.105820 0.235652
v 0.052151 -0.006425 0.309888
v 0.060094 -0.006425 0.294858
v 0.011243 0.032900 0.305273
v 0.034606 0.032900 0.261067
v -0.023568 0.071510 0.270791
v -0.007681 0.071510 0.240731
v -0.045234 0.095820 0.238304
v -0.043832 0.095820 0.235652
vn 0.6332 0.6979 0.3346
vn -0.6332 -0.6979 -0.3346
vn -0.1121 -0.0000 0.9937
vn 0.7983 -0.0000 -0.6022
vn 0.5620 0.7720 0.2970
vn -0.5620 -0.7720 -0.2970
vn -0.7037 -0.0000 0.7105
vn 0.4334 -0.0000 -0.9012
vn 0.5109 0.8161 0.2700
vn -0.5109 -0.8161 -0.2700
vn -0.8320 -0.0000 0.5548
vn 0.1391 -0.0000 -0.9903
vn -0.8841 -0.0000 -0.4673
vn 0.8841 -0.0000 0.4673
s 0
usemtl VergeGrass
f 225//197 226//197 228//197 227//197
f 233//198 235//198 236//198 234//198
f 225//199 227//199 235//199 233//199
f 226//200 234//200 236//200 228//200
f 227//201 228//201 230//201 229//201
f 235//202 237//202 238//202 236//202
f 227//203 229//203 237//203 235//203
f 228//204 236//204 238//204 230//204
f 229//205 230//205 232//205 231//205
f 237//206 239//206 240//206 238//206
f 229//207 231//207 239//207 237//207
f 230//208 238//208 240//208 232//208
f 225//209 226//209 234//209 233//209
f 231//210 239//210 240//210 232//210
o curved_grass_blade.015
v -0.083790 0.004625 -0.051537
v -0.102824 0.004625 -0.051073
v -0.060509 0.055500 -0.004588
v -0.116492 0.055500 -0.003222
v -0.061113 0.105450 0.054226
v -0.099182 0.105450 0.055155
v -0.075891 0.136900 0.098535
v -0.079250 0.136900 0.098617
v -0.083790 -0.005375 -0.051537
v -0.102824 -0.005375 -0.051073
v -0.060509 0.045500 -0.004588
v -0.116492 0.045500 -0.003222
v -0.061113 0.095450 0.054226
v -0.099182 0.095450 0.055155
v -0.075891 0.126900 0.098535
v -0.079250 0.126900 0.098617
vn -0.0178 0.6825 -0.7307
vn 0.0178 -0.6825 0.7307
vn 0.8959 -0.0000 -0.4442
vn -0.9615 -0.0000 -0.2747
vn -0.0158 0.7620 -0.6473
vn 0.0158 -0.7620 0.6473
vn 0.9999 -0.0000 0.0103
vn -0.9587 -0.0000 0.2843
vn -0.0142 0.8131 -0.5819
vn 0.0142 -0.8131 0.5819
vn 0.9486 -0.0000 0.3164
vn -0.9090 -0.0000 0.4169
vn 0.0244 -0.0000 0.9997
vn -0.0244 -0.0000 -0.9997
s 0
usemtl VergeGrass
f 241//211 242//211 244//211 243//211
f 249//212 251//212 252//212 250//212
f 241//213 243//213 251//213 249//213
f 242//214 250//214 252//214 244//214
f 243//215 244//215 246//215 245//215
f 251//216 253//216 254//216 252//216
f 243//217 245//217 253//217 251//217
f 244//218 252//218 254//218 246//218
f 245//219 246//219 248//219 247//219
f 253//220 255//220 256//220 254//220
f 245//221 247//221 255//221 253//221
f 246//222 254//222 256//222 248//222
f 241//223 242//223 250//223 249//223
f 247//224 255//224 256//224 248//224
o curved_grass_blade.016
v 0.176964 0.002875 0.198962
v 0.188681 0.002875 0.204407
v 0.181227 0.034500 0.168026
v 0.215688 0.034500 0.184039
v 0.201993 0.065550 0.137061
v 0.225427 0.065550 0.147950
v 0.221081 0.085100 0.115732
v 0.223149 0.085100 0.116693
v 0.176964 -0.007125 0.198962
v 0.188681 -0.007125 0.204407
v 0.181227 0.024500 0.168026
v 0.215688 0.024500 0.184039
v 0.201993 0.055550 0.137061
v 0.225427 0.055550 0.147950
v 0.221081 0.075100 0.115732
v 0.223149 0.075100 0.116693
vn -0.3064 0.6864 0.6595
vn 0.3064 -0.6864 -0.6595
vn -0.9906 -0.0000 -0.1365
vn 0.6021 -0.0000 0.7984
vn -0.2716 0.7646 0.5845
vn 0.2716 -0.7646 -0.5845
vn -0.8305 -0.0000 -0.5570
vn 0.9655 -0.0000 0.2605
vn -0.2448 0.8139 0.5269
vn 0.2448 -0.8139 -0.5269
vn -0.7452 -0.0000 -0.6669
vn 0.9974 -0.0000 -0.0727
vn 0.4214 -0.0000 -0.9069
vn -0.4214 -0.0000 0.9069
s 0
usemtl Leaf
f 257//225 258//225 260//225 259//225
f 265//226 267//226 268//226 266//226
f 257//227 259//227 267//227 265//227
f 258//228 266//228 268//228 260//228
f 259//229 260//229 262//229 261//229
f 267//230 269//230 270//230 268//230
f 259//231 261//231 269//231 267//231
f 260//232 268//232 270//232 262//232
f 261//233 262//233 264//233 263//233
f 269//234 271//234 272//234 270//234
f 261//235 263//235 271//235 269//235
f 262//236 270//236 272//236 264//236
f 257//237 258//237 266//237 265//237
f 263//238 271//238 272//238 264//238
o curved_grass_blade.017
v -0.007152 0.003925 -0.014990
v -0.008901 0.003925 -0.029847
v -0.046081 0.047100 0.006676
v -0.051225 0.047100 -0.037022
v -0.097567 0.089490 0.002819
v -0.101065 0.089490 -0.026896
v -0.136909 0.116180 -0.010705
v -0.137218 0.116180 -0.013327
v -0.007152 -0.006075 -0.014990
v -0.008901 -0.006075 -0.029847
v -0.046081 0.037100 0.006676
v -0.051225 0.037100 -0.037022
v -0.097567 0.079490 0.002819
v -0.101065 0.079490 -0.026896
v -0.136909 0.106180 -0.010705
v -0.137218 0.106180 -0.013327
vn 0.7185 0.6903 -0.0846
vn -0.7185 -0.6903 0.0846
vn 0.4863 -0.0000 0.8738
vn 0.1671 -0.0000 -0.9859
vn 0.6372 0.7671 -0.0750
vn -0.6372 -0.7671 0.0750
vn -0.0747 -0.0000 0.9972
vn -0.1991 -0.0000 -0.9800
vn 0.5760 0.8146 -0.0678
vn -0.5760 -0.8146 0.0678
vn -0.3251 -0.0000 0.9457
vn -0.3514 -0.0000 -0.9362
vn -0.9931 -0.0000 0.1169
vn 0.9931 -0.0000 -0.1169
s 0
usemtl VergeGrass
f 273//239 274//239 276//239 275//239
f 281//240 283//240 284//240 282//240
f 273//241 275//241 283//241 281//241
f 274//242 282//242 284//242 276//242
f 275//243 276//243 278//243 277//243
f 283//244 285//244 286//244 284//244
f 275//245 277//245 285//245 283//245
f 276//246 284//246 286//246 278//246
f 277//247 278//247 280//247 279//247
f 285//248 287//248 288//248 286//248
f 277//249 279//249 287//249 285//249
f 278//250 286//250 288//250 280//250
f 273//251 274//251 282//251 281//251
f 279//252 287//252 288//252 280//252
